# vtk DataFile Version 2.0
  Generated by MUL2 - Zappino
ASCII
DATASET UNSTRUCTURED_GRID
POINTS       81 double
    0.000000000    0.000000000   -0.500000000
    0.000000000    0.000000000    0.000000000
    0.000000000    0.000000000    0.500000000
    0.000000000    0.500000000   -0.500000000
    0.000000000    0.500000000    0.000000000
    0.000000000    0.500000000    0.500000000
    0.000000000    1.000000000   -0.500000000
    0.000000000    1.000000000    0.000000000
    0.000000000    1.000000000    0.500000000
    0.500000000    0.000000000   -0.500000000
    0.500000000    0.000000000    0.000000000
    0.500000000    0.000000000    0.500000000
    0.500000000    0.500000000   -0.500000000
    0.500000000    0.500000000    0.000000000
    0.500000000    0.500000000    0.500000000
    0.500000000    1.000000000   -0.500000000
    0.500000000    1.000000000    0.000000000
    0.500000000    1.000000000    0.500000000
    1.000000000    0.000000000   -0.500000000
    1.000000000    0.000000000    0.000000000
    1.000000000    0.000000000    0.500000000
    1.000000000    0.500000000   -0.500000000
    1.000000000    0.500000000    0.000000000
    1.000000000    0.500000000    0.500000000
    1.000000000    1.000000000   -0.500000000
    1.000000000    1.000000000    0.000000000
    1.000000000    1.000000000    0.500000000
    0.000000000    1.000000000   -0.500000000
    0.000000000    1.000000000    0.000000000
    0.000000000    1.000000000    0.500000000
    0.000000000    1.500000000   -0.500000000
    0.000000000    1.500000000    0.000000000
    0.000000000    1.500000000    0.500000000
    0.000000000    2.000000000   -0.500000000
    0.000000000    2.000000000    0.000000000
    0.000000000    2.000000000    0.500000000
    0.500000000    1.000000000   -0.500000000
    0.500000000    1.000000000    0.000000000
    0.500000000    1.000000000    0.500000000
    0.500000000    1.500000000   -0.500000000
    0.500000000    1.500000000    0.000000000
    0.500000000    1.500000000    0.500000000
    0.500000000    2.000000000   -0.500000000
    0.500000000    2.000000000    0.000000000
    0.500000000    2.000000000    0.500000000
    1.000000000    1.000000000   -0.500000000
    1.000000000    1.000000000    0.000000000
    1.000000000    1.000000000    0.500000000
    1.000000000    1.500000000   -0.500000000
    1.000000000    1.500000000    0.000000000
    1.000000000    1.500000000    0.500000000
    1.000000000    2.000000000   -0.500000000
    1.000000000    2.000000000    0.000000000
    1.000000000    2.000000000    0.500000000
    0.000000000    3.000000000   -0.500000000
    0.000000000    2.500000000   -0.500000000
    0.000000000    2.000000000   -0.500000000
    0.000000000    3.000000000    0.000000000
    0.000000000    2.500000000    0.000000000
    0.000000000    2.000000000    0.000000000
    0.000000000    3.000000000    0.500000000
    0.000000000    2.500000000    0.500000000
    0.000000000    2.000000000    0.500000000
    0.500000000    3.000000000   -0.500000000
    0.500000000    2.500000000   -0.500000000
    0.500000000    2.000000000   -0.500000000
    0.500000000    3.000000000    0.000000000
    0.500000000    2.500000000    0.000000000
    0.500000000    2.000000000    0.000000000
    0.500000000    3.000000000    0.500000000
    0.500000000    2.500000000    0.500000000
    0.500000000    2.000000000    0.500000000
    1.000000000    3.000000000   -0.500000000
    1.000000000    2.500000000   -0.500000000
    1.000000000    2.000000000   -0.500000000
    1.000000000    3.000000000    0.000000000
    1.000000000    2.500000000    0.000000000
    1.000000000    2.000000000    0.000000000
    1.000000000    3.000000000    0.500000000
    1.000000000    2.500000000    0.500000000
    1.000000000    2.000000000    0.500000000
         
 CELLS       3      63
       20        0       18       24        6        2       20       26        8        9       21       15        3       11       23       17        5        1       19       25        7
       20       27       45       51       33       29       47       53       35       36       48       42       30       38       50       44       32       28       46       52       34
       20       54       72       78       60       56       74       80       62       63       75       69       57       65       77       71       59       55       73       79       61
         
  CELL_TYPES        3
25
25
25
POINT_DATA       81
VECTORS Displacements double
        0.000000000E+000        0.000000000E+000        0.000000000E+000
        0.000000000E+000        0.000000000E+000        0.000000000E+000
        0.000000000E+000        0.000000000E+000        0.000000000E+000
        3.153646455E-009        9.937396431E-009        6.997395577E-009
       -3.239672640E-024       -9.603544043E-024        5.105060255E-009
       -3.153646455E-009       -9.937396431E-009        6.997395577E-009
        2.655555034E-009        1.902212283E-008        2.279391017E-008
       -3.358541868E-023       -3.284186200E-023        2.178857964E-008
       -2.655555034E-009       -1.902212283E-008        2.279391017E-008
        0.000000000E+000        0.000000000E+000        0.000000000E+000
        0.000000000E+000        0.000000000E+000        0.000000000E+000
        0.000000000E+000        0.000000000E+000        0.000000000E+000
        6.610020235E-023        9.598020990E-009        8.447259026E-009
       -9.363575223E-025        1.108618426E-023        6.531819329E-009
       -5.863843951E-023       -9.598020990E-009        8.447259026E-009
        9.632882751E-023        1.935858986E-008        2.422705742E-008
       -3.062375482E-023        2.330182296E-023        2.306059811E-008
       -1.445088960E-022       -1.935858986E-008        2.422705742E-008
        0.000000000E+000        0.000000000E+000        0.000000000E+000
        0.000000000E+000        0.000000000E+000        0.000000000E+000
        0.000000000E+000        0.000000000E+000        0.000000000E+000
       -3.153646455E-009        9.937396431E-009        6.997395577E-009
       -8.259240364E-024        3.235745420E-023        5.105060255E-009
        3.153646455E-009       -9.937396431E-009        6.997395577E-009
       -2.655555034E-009        1.902212283E-008        2.279391017E-008
       -3.773658842E-023        8.204785917E-023        2.178857964E-008
        2.655555034E-009       -1.902212283E-008        2.279391017E-008
        2.655555034E-009        1.902212283E-008        2.279391017E-008
       -3.358541868E-023       -3.284186200E-023        2.178857964E-008
       -2.655555034E-009       -1.902212283E-008        2.279391017E-008
        2.031710160E-009        2.621659130E-008        4.781887910E-008
       -1.071865810E-022       -6.024511744E-023        4.676663478E-008
       -2.031710160E-009       -2.621659130E-008        4.781887910E-008
        1.380115945E-009        3.139713979E-008        7.870806581E-008
       -2.386001196E-022       -7.380741923E-023        7.795199856E-008
       -1.380115945E-009       -3.139713979E-008        7.870806581E-008
        9.632882751E-023        1.935858986E-008        2.422705742E-008
       -3.062375482E-023        2.330182296E-023        2.306059811E-008
       -1.445088960E-022       -1.935858986E-008        2.422705742E-008
        7.684131552E-023        2.645465160E-008        4.882946342E-008
       -1.058990116E-022        3.481160984E-023        4.778467979E-008
       -2.559524232E-022       -2.645465160E-008        4.882946342E-008
        1.498925692E-023        3.155598282E-008        7.935092734E-008
       -2.281587100E-022        5.085331968E-023        7.882504143E-008
       -4.557859686E-022       -3.155598282E-008        7.935092734E-008
       -2.655555034E-009        1.902212283E-008        2.279391017E-008
       -3.773658842E-023        8.204785917E-023        2.178857964E-008
        2.655555034E-009       -1.902212283E-008        2.279391017E-008
       -2.031710160E-009        2.621659130E-008        4.781887910E-008
       -1.055256947E-022        1.330184369E-022        4.676663478E-008
        2.031710160E-009       -2.621659130E-008        4.781887910E-008
       -1.380115945E-009        3.139713979E-008        7.870806581E-008
       -2.251669303E-022        1.770002207E-022        7.795199856E-008
        1.380115945E-009       -3.139713979E-008        7.870806581E-008
        1.076732538E-009        3.572449140E-008        1.498404887E-007
        7.717106657E-010        3.440616895E-008        1.136780040E-007
        1.380115945E-009        3.139713979E-008        7.870806581E-008
       -5.204960743E-022       -7.921620879E-023        1.494996830E-007
       -3.489554567E-022       -6.932073809E-023        1.134139952E-007
       -2.386001196E-022       -7.380741923E-023        7.795199856E-008
       -1.076732538E-009       -3.572449140E-008        1.498404887E-007
       -7.717106657E-010       -3.440616895E-008        1.136780040E-007
       -1.380115945E-009       -3.139713979E-008        7.870806581E-008
       -2.171728101E-022        3.561249145E-008        1.507128321E-007
       -9.480635315E-023        3.464014790E-008        1.141523185E-007
        1.498925692E-023        3.155598282E-008        7.935092734E-008
       -4.810374537E-022        5.690664158E-023        1.518368809E-007
       -3.650163303E-022        6.926742101E-023        1.137431637E-007
       -2.281587100E-022        5.085331968E-023        7.882504143E-008
       -7.786050112E-022       -3.561249145E-008        1.507128321E-007
       -6.766491607E-022       -3.464014790E-008        1.141523185E-007
       -4.557859686E-022       -3.155598282E-008        7.935092734E-008
       -1.076732538E-009        3.572449140E-008        1.498404887E-007
       -7.717106657E-010        3.440616895E-008        1.136780040E-007
       -1.380115945E-009        3.139713979E-008        7.870806581E-008
       -4.797166115E-022        1.671113557E-022        1.494996830E-007
       -3.730895879E-022        1.952384039E-022        1.134139952E-007
       -2.251669303E-022        1.770002207E-022        7.795199856E-008
        1.076732538E-009       -3.572449140E-008        1.498404887E-007
        7.717106657E-010       -3.440616895E-008        1.136780040E-007
        1.380115945E-009       -3.139713979E-008        7.870806581E-008
VECTORS  ElectricDisplacements double
        0.000000000E+000        0.000000000E+000        0.000000000E+000
        0.000000000E+000        0.000000000E+000        0.000000000E+000
        0.000000000E+000        0.000000000E+000        0.000000000E+000
        0.000000000E+000        0.000000000E+000        0.000000000E+000
        0.000000000E+000        0.000000000E+000        0.000000000E+000
        0.000000000E+000        0.000000000E+000        0.000000000E+000
        0.000000000E+000        0.000000000E+000        0.000000000E+000
        0.000000000E+000        0.000000000E+000        0.000000000E+000
        0.000000000E+000        0.000000000E+000        0.000000000E+000
        0.000000000E+000        0.000000000E+000        0.000000000E+000
        0.000000000E+000        0.000000000E+000        0.000000000E+000
        0.000000000E+000        0.000000000E+000        0.000000000E+000
        0.000000000E+000        0.000000000E+000        0.000000000E+000
        0.000000000E+000        0.000000000E+000        0.000000000E+000
        0.000000000E+000        0.000000000E+000        0.000000000E+000
        0.000000000E+000        0.000000000E+000        0.000000000E+000
        0.000000000E+000        0.000000000E+000        0.000000000E+000
        0.000000000E+000        0.000000000E+000        0.000000000E+000
        0.000000000E+000        0.000000000E+000        0.000000000E+000
        0.000000000E+000        0.000000000E+000        0.000000000E+000
        0.000000000E+000        0.000000000E+000        0.000000000E+000
        0.000000000E+000        0.000000000E+000        0.000000000E+000
        0.000000000E+000        0.000000000E+000        0.000000000E+000
        0.000000000E+000        0.000000000E+000        0.000000000E+000
        0.000000000E+000        0.000000000E+000        0.000000000E+000
        0.000000000E+000        0.000000000E+000        0.000000000E+000
        0.000000000E+000        0.000000000E+000        0.000000000E+000
        0.000000000E+000        0.000000000E+000        0.000000000E+000
        0.000000000E+000        0.000000000E+000        0.000000000E+000
        0.000000000E+000        0.000000000E+000        0.000000000E+000
        0.000000000E+000        0.000000000E+000        0.000000000E+000
        0.000000000E+000        0.000000000E+000        0.000000000E+000
        0.000000000E+000        0.000000000E+000        0.000000000E+000
        0.000000000E+000        0.000000000E+000        0.000000000E+000
        0.000000000E+000        0.000000000E+000        0.000000000E+000
        0.000000000E+000        0.000000000E+000        0.000000000E+000
        0.000000000E+000        0.000000000E+000        0.000000000E+000
        0.000000000E+000        0.000000000E+000        0.000000000E+000
        0.000000000E+000        0.000000000E+000        0.000000000E+000
        0.000000000E+000        0.000000000E+000        0.000000000E+000
        0.000000000E+000        0.000000000E+000        0.000000000E+000
        0.000000000E+000        0.000000000E+000        0.000000000E+000
        0.000000000E+000        0.000000000E+000        0.000000000E+000
        0.000000000E+000        0.000000000E+000        0.000000000E+000
        0.000000000E+000        0.000000000E+000        0.000000000E+000
        0.000000000E+000        0.000000000E+000        0.000000000E+000
        0.000000000E+000        0.000000000E+000        0.000000000E+000
        0.000000000E+000        0.000000000E+000        0.000000000E+000
        0.000000000E+000        0.000000000E+000        0.000000000E+000
        0.000000000E+000        0.000000000E+000        0.000000000E+000
        0.000000000E+000        0.000000000E+000        0.000000000E+000
        0.000000000E+000        0.000000000E+000        0.000000000E+000
        0.000000000E+000        0.000000000E+000        0.000000000E+000
        0.000000000E+000        0.000000000E+000        0.000000000E+000
        0.000000000E+000        0.000000000E+000        0.000000000E+000
        0.000000000E+000        0.000000000E+000        0.000000000E+000
        0.000000000E+000        0.000000000E+000        0.000000000E+000
        0.000000000E+000        0.000000000E+000        0.000000000E+000
        0.000000000E+000        0.000000000E+000        0.000000000E+000
        0.000000000E+000        0.000000000E+000        0.000000000E+000
        0.000000000E+000        0.000000000E+000        0.000000000E+000
        0.000000000E+000        0.000000000E+000        0.000000000E+000
        0.000000000E+000        0.000000000E+000        0.000000000E+000
        0.000000000E+000        0.000000000E+000        0.000000000E+000
        0.000000000E+000        0.000000000E+000        0.000000000E+000
        0.000000000E+000        0.000000000E+000        0.000000000E+000
        0.000000000E+000        0.000000000E+000        0.000000000E+000
        0.000000000E+000        0.000000000E+000        0.000000000E+000
        0.000000000E+000        0.000000000E+000        0.000000000E+000
        0.000000000E+000        0.000000000E+000        0.000000000E+000
        0.000000000E+000        0.000000000E+000        0.000000000E+000
        0.000000000E+000        0.000000000E+000        0.000000000E+000
        0.000000000E+000        0.000000000E+000        0.000000000E+000
        0.000000000E+000        0.000000000E+000        0.000000000E+000
        0.000000000E+000        0.000000000E+000        0.000000000E+000
        0.000000000E+000        0.000000000E+000        0.000000000E+000
        0.000000000E+000        0.000000000E+000        0.000000000E+000
        0.000000000E+000        0.000000000E+000        0.000000000E+000
        0.000000000E+000        0.000000000E+000        0.000000000E+000
        0.000000000E+000        0.000000000E+000        0.000000000E+000
        0.000000000E+000        0.000000000E+000        0.000000000E+000
        VECTORS SHEAR double
        2.733117471E+002        0.000000000E+000        1.425879947E+002
        5.660718619E-013        0.000000000E+000       -3.755214995E+001
       -2.733117471E+002        0.000000000E+000        1.425879947E+002
        3.562326638E+001        0.000000000E+000        6.255471588E+002
        1.979369282E-013        0.000000000E+000        5.979572607E+002
       -3.562326638E+001        0.000000000E+000        6.255471588E+002
       -9.062024030E+001        0.000000000E+000        1.108506323E+003
        6.006707082E-013        0.000000000E+000        1.233466671E+003
        9.062024030E+001        0.000000000E+000        1.108506323E+003
        4.612501758E-012        0.000000000E+000        2.624152044E+002
        7.376382350E-013        0.000000000E+000        8.416074506E+001
       -2.471155989E-012        0.000000000E+000        2.624152044E+002
        4.040746195E-012        0.000000000E+000        6.648778917E+002
        3.111348759E-013        0.000000000E+000        6.328660385E+002
       -2.769500201E-012        0.000000000E+000        6.648778917E+002
        3.731085082E-012        0.000000000E+000        1.067340579E+003
        7.344976453E-013        0.000000000E+000        1.181571332E+003
       -2.824933468E-012        0.000000000E+000        1.067340579E+003
       -2.733117471E+002        0.000000000E+000        1.425879947E+002
        1.289747248E-013        0.000000000E+000       -3.755214995E+001
        2.733117471E+002        0.000000000E+000        1.425879947E+002
       -3.562326638E+001        0.000000000E+000        6.255471588E+002
        1.478522541E-013        0.000000000E+000        5.979572607E+002
        3.562326638E+001        0.000000000E+000        6.255471588E+002
        9.062024030E+001        0.000000000E+000        1.108506323E+003
        1.095593327E-012        0.000000000E+000        1.233466671E+003
       -9.062024030E+001        0.000000000E+000        1.108506323E+003
        5.065256563E+000        0.000000000E+000        1.509062198E+002
        4.140243283E-013        0.000000000E+000        1.037170061E+002
       -5.065256563E+000        0.000000000E+000        1.509062198E+002
       -9.674389684E+000        0.000000000E+000        1.043494567E+002
       -4.239211932E-013        0.000000000E+000        1.287894368E+002
        9.674389684E+000        0.000000000E+000        1.043494567E+002
       -1.747948673E+001        0.000000000E+000        1.154171945E+002
       -2.140954238E-012        0.000000000E+000        1.058905878E+002
        1.747948673E+001        0.000000000E+000        1.154171945E+002
        3.389708953E-012        0.000000000E+000        9.210650874E+001
        4.620728007E-013        0.000000000E+000        8.624177286E+001
       -1.559883920E-012        0.000000000E+000        9.210650874E+001
        3.246217449E-012        0.000000000E+000        7.741152462E+001
       -1.928780922E-013        0.000000000E+000        9.581215441E+001
       -3.677533054E-012        0.000000000E+000        7.741152462E+001
        3.813737982E-012        0.000000000E+000        7.238681734E+001
       -9.655397923E-013        0.000000000E+000        1.101269098E+002
       -8.535508817E-012        0.000000000E+000        7.238681734E+001
       -5.065256563E+000        0.000000000E+000        1.509062198E+002
        2.555280296E-013        0.000000000E+000        1.037170061E+002
        5.065256563E+000        0.000000000E+000        1.509062198E+002
        9.674389684E+000        0.000000000E+000        1.043494567E+002
        7.042598985E-013        0.000000000E+000        1.287894368E+002
       -9.674389684E+000        0.000000000E+000        1.043494567E+002
        1.747948673E+001        0.000000000E+000        1.154171945E+002
       -1.767696785E-012        0.000000000E+000        1.058905878E+002
       -1.747948673E+001        0.000000000E+000        1.154171945E+002
        2.951480799E+001        0.000000000E+000        5.676801101E+001
        1.735897226E+001        0.000000000E+000        6.367150504E+001
       -4.102450718E+001        0.000000000E+000        1.633731869E+002
       -2.911840437E-012        0.000000000E+000        3.694140092E+001
        2.167369928E-013        0.000000000E+000        7.506778026E+001
        2.423542978E-012        0.000000000E+000        2.059923474E+002
       -2.951480799E+001        0.000000000E+000        5.676801101E+001
       -1.735897226E+001        0.000000000E+000        6.367150504E+001
        4.102450718E+001        0.000000000E+000        1.633731869E+002
       -1.613146694E-012        0.000000000E+000        1.003109670E+002
        1.404706399E-012        0.000000000E+000        5.712686278E+001
        2.490909492E-012        0.000000000E+000        1.298547682E+002
        9.638693437E-013        0.000000000E+000        2.233373651E+002
        3.205522821E-013        0.000000000E+000        1.024070263E+002
       -1.200495908E-012        0.000000000E+000        9.738869726E+001
       -1.424793551E-012        0.000000000E+000        1.003109670E+002
       -4.744212284E-012        0.000000000E+000        5.712686278E+001
       -9.937615659E-012        0.000000000E+000        1.298547682E+002
       -2.951480799E+001        0.000000000E+000        5.676801101E+001
       -1.735897226E+001        0.000000000E+000        6.367150504E+001
        4.102450718E+001        0.000000000E+000        1.633731869E+002
        6.183835154E-013        0.000000000E+000        3.694140092E+001
       -4.178259770E-013        0.000000000E+000        7.506778026E+001
       -2.287726283E-012        0.000000000E+000        2.059923474E+002
        2.951480799E+001        0.000000000E+000        5.676801101E+001
        1.735897226E+001        0.000000000E+000        6.367150504E+001
       -4.102450718E+001        0.000000000E+000        1.633731869E+002
 SCALARS Sigma_XX double 1
 LOOKUP_TABLE default
        1.104211811E+003
       -2.968532695E-013
       -1.104211811E+003
       -7.207472101E+001
        4.067715721E-013
        7.207472101E+001
        1.338373575E+002
        4.669352704E-013
       -1.338373575E+002
        1.013969201E+003
        1.121016807E-012
       -1.013969201E+003
       -5.907349762E+001
        8.151022647E-014
        5.907349762E+001
        2.255939281E+002
        5.601726467E-013
       -2.255939281E+002
        1.104211811E+003
        2.524173726E-012
       -1.104211811E+003
       -7.207472101E+001
        3.355466496E-013
        7.207472101E+001
        1.338373575E+002
        1.650453516E-012
       -1.338373575E+002
        8.127739387E+001
       -7.722644905E-013
       -8.127739387E+001
       -2.535203059E+000
        1.099068151E-012
        2.535203059E+000
       -1.885280652E+001
        8.672621696E-013
        1.885280652E+001
        2.105637359E+001
        3.880109366E-013
       -2.105637359E+001
       -3.218568268E+000
       -1.142975750E-012
        3.218568268E+000
        8.400167316E+000
        1.492999620E-012
       -8.400167316E+000
        8.127739387E+001
        1.528053227E-013
       -8.127739387E+001
       -2.535203059E+000
        3.951294811E-012
        2.535203059E+000
       -1.885280652E+001
        9.570251707E-013
        1.885280652E+001
       -2.551489707E+002
        7.335851944E+000
       -4.899034159E+001
        9.693327216E-013
       -1.806131611E-012
        3.603595594E-012
        2.551489707E+002
       -7.335851944E+000
        4.899034159E+001
       -2.297438886E+000
       -3.802211405E+001
        3.049877733E+001
        1.454255412E-012
       -2.287872251E-012
        2.939164277E-012
        2.297438886E+000
        3.802211405E+001
       -3.049877733E+001
       -2.551489707E+002
        7.335851944E+000
       -4.899034159E+001
        5.647620079E-013
        3.526149828E-012
        2.139458424E-012
        2.551489707E+002
       -7.335851944E+000
        4.899034159E+001
 SCALARS Sigma_YY double 1
 LOOKUP_TABLE default
        2.241884587E+003
       -6.027020925E-013
       -2.241884587E+003
        1.318186444E+003
       -2.177027213E-012
       -1.318186444E+003
        1.375819445E+003
       -3.710488906E-012
       -1.375819445E+003
        2.058664742E+003
        2.276003820E-012
       -2.058664742E+003
        1.349655406E+003
        1.635992573E-012
       -1.349655406E+003
        1.597488729E+003
        2.190976268E-012
       -1.597488729E+003
        2.241884587E+003
        5.124837566E-012
       -2.241884587E+003
        1.318186444E+003
        6.171145947E-012
       -1.318186444E+003
        1.375819445E+003
        9.390315586E-012
       -1.375819445E+003
        1.269106792E+003
       -6.226439936E-012
       -1.269106792E+003
        9.017198145E+002
       -9.368248660E-013
       -9.017198145E+002
        5.868121038E+002
       -2.225160567E-012
       -5.868121038E+002
        1.182215513E+003
        1.841435826E-012
       -1.182215513E+003
        8.986943905E+002
        1.726663192E-013
       -8.986943905E+002
        5.916078450E+002
        2.976246578E-012
       -5.916078450E+002
        1.269106792E+003
        6.349635920E-012
       -1.269106792E+003
        9.017198145E+002
        9.730065732E-012
       -9.017198145E+002
        5.868121038E+002
        4.366173968E-012
       -5.868121038E+002
       -8.503134769E+001
        3.295662464E+002
        5.256237750E+002
       -7.331157680E-012
        9.848634216E-014
        3.330425476E-012
        8.503134769E+001
       -3.295662464E+002
       -5.256237750E+002
        1.067267227E+002
        2.693424627E+002
        6.364747199E+002
       -3.830061039E-012
       -6.309669310E-013
        5.912399062E-012
       -1.067267227E+002
       -2.693424627E+002
       -6.364747199E+002
       -8.503134769E+001
        3.295662464E+002
        5.256237750E+002
       -3.119445559E-012
        3.431196817E-012
        6.766871785E-012
        8.503134769E+001
       -3.295662464E+002
       -5.256237750E+002
 SCALARS Sigma_ZZ double 1
 LOOKUP_TABLE default
        1.104211811E+003
       -2.968532695E-013
       -1.104211811E+003
       -1.413450454E+002
        2.611942246E-013
        1.413450454E+002
        2.046302287E+002
        1.586531428E-012
       -2.046302287E+002
        1.013969201E+003
        1.121016807E-012
       -1.013969201E+003
       -1.334163615E+002
       -2.786026624E-013
        1.334163615E+002
        2.610111586E+002
        4.248056642E-013
       -2.610111586E+002
        1.104211811E+003
        2.524173726E-012
       -1.104211811E+003
       -1.413450454E+002
        2.149146459E-013
        1.413450454E+002
        2.046302287E+002
        9.865496761E-013
       -2.046302287E+002
        1.520702651E+002
        3.473316667E-013
       -1.520702651E+002
       -1.052441977E+001
        3.495438813E-012
        1.052441977E+001
       -3.334506886E+001
       -1.414253427E-012
        3.334506886E+001
        5.647360411E+001
        2.526439540E-013
       -5.647360411E+001
       -9.569799404E+000
       -4.003637380E-012
        9.569799404E+000
        4.444395906E+001
       -1.423589621E-012
       -4.444395906E+001
        1.520702651E+002
       -5.110985173E-013
       -1.520702651E+002
       -1.052441977E+001
        2.280634145E-012
        1.052441977E+001
       -3.334506886E+001
       -1.141785151E-012
        3.334506886E+001
       -2.117747737E+002
        3.408711457E+001
       -6.348260394E+001
       -1.562545961E-011
        3.301064883E-012
        1.322079998E-012
        2.117747737E+002
       -3.408711457E+001
        6.348260394E+001
        3.626839189E+002
       -4.313748354E+001
        6.654256907E+001
       -7.840158568E-013
       -9.632169300E-013
        2.257503543E-014
       -3.626839189E+002
        4.313748354E+001
       -6.654256907E+001
       -2.117747737E+002
        3.408711457E+001
       -6.348260394E+001
        1.268301180E-011
        9.058953081E-012
        4.064810248E-014
        2.117747737E+002
       -3.408711457E+001
        6.348260394E+001
 SCALARS Sigma_XZ double 1
 LOOKUP_TABLE default
        0.000000000E+000
        0.000000000E+000
        0.000000000E+000
        1.591579425E+002
        1.566216728E+002
        1.591579425E+002
        1.573229315E+002
        1.396351112E+002
        1.573229315E+002
        0.000000000E+000
        0.000000000E+000
        0.000000000E+000
        3.881840446E-012
        3.382422377E-012
        2.837602665E-012
        7.536672679E-012
        6.810246397E-012
        5.539000403E-012
        0.000000000E+000
        0.000000000E+000
        0.000000000E+000
       -1.591579425E+002
       -1.566216728E+002
       -1.591579425E+002
       -1.573229315E+002
       -1.396351112E+002
       -1.573229315E+002
        1.156690334E+001
       -6.120916998E+000
        1.156690334E+001
       -5.785947436E-001
        2.403980441E-001
       -5.785947436E-001
       -5.180962568E+000
        2.008706448E+001
       -5.180962568E+000
        2.409270843E-013
        1.816065706E-013
       -3.612292808E-013
       -6.692537015E-013
        1.589057493E-013
        5.458017748E-013
       -1.883350099E-013
        3.632131412E-013
        7.107132731E-013
       -1.156690334E+001
        6.120916998E+000
       -1.156690334E+001
        5.785947436E-001
       -2.403980441E-001
        5.785947436E-001
        5.180962568E+000
       -2.008706448E+001
        5.180962568E+000
        3.666215531E+001
        9.710555524E+000
       -5.180962568E+000
        1.974657357E+002
       -6.222760533E+000
        2.008706448E+001
        3.666215531E+001
        9.710555524E+000
       -5.180962568E+000
        2.442327262E-013
        3.013523151E-012
       -3.327735058E-013
        4.057188370E-012
        1.407027751E-012
        2.040480192E-013
        6.714482314E-012
       -4.440077890E-013
        6.445772135E-013
       -3.666215531E+001
       -9.710555524E+000
        5.180962568E+000
       -1.974657357E+002
        6.222760533E+000
       -2.008706448E+001
       -3.666215531E+001
       -9.710555524E+000
        5.180962568E+000
 SCALARS Sigma_YZ double 1
 LOOKUP_TABLE default
        1.425879947E+002
       -3.755214995E+001
        1.425879947E+002
        6.255471588E+002
        5.979572607E+002
        6.255471588E+002
        1.108506323E+003
        1.233466671E+003
        1.108506323E+003
        2.624152044E+002
        8.416074506E+001
        2.624152044E+002
        6.648778917E+002
        6.328660385E+002
        6.648778917E+002
        1.067340579E+003
        1.181571332E+003
        1.067340579E+003
        1.425879947E+002
       -3.755214995E+001
        1.425879947E+002
        6.255471588E+002
        5.979572607E+002
        6.255471588E+002
        1.108506323E+003
        1.233466671E+003
        1.108506323E+003
        1.509062198E+002
        1.037170061E+002
        1.509062198E+002
        1.043494567E+002
        1.287894368E+002
        1.043494567E+002
        1.154171945E+002
        1.058905878E+002
        1.154171945E+002
        9.210650874E+001
        8.624177286E+001
        9.210650874E+001
        7.741152462E+001
        9.581215441E+001
        7.741152462E+001
        7.238681734E+001
        1.101269098E+002
        7.238681734E+001
        1.509062198E+002
        1.037170061E+002
        1.509062198E+002
        1.043494567E+002
        1.287894368E+002
        1.043494567E+002
        1.154171945E+002
        1.058905878E+002
        1.154171945E+002
        5.676801101E+001
        6.367150504E+001
        1.633731869E+002
        3.694140092E+001
        7.506778026E+001
        2.059923474E+002
        5.676801101E+001
        6.367150504E+001
        1.633731869E+002
        1.003109670E+002
        5.712686278E+001
        1.298547682E+002
        2.233373651E+002
        1.024070263E+002
        9.738869726E+001
        1.003109670E+002
        5.712686278E+001
        1.298547682E+002
        5.676801101E+001
        6.367150504E+001
        1.633731869E+002
        3.694140092E+001
        7.506778026E+001
        2.059923474E+002
        5.676801101E+001
        6.367150504E+001
        1.633731869E+002
 SCALARS Sigma_XY double 1
 LOOKUP_TABLE default
        2.733117471E+002
        5.660718619E-013
       -2.733117471E+002
        3.562326638E+001
        1.979369282E-013
       -3.562326638E+001
       -9.062024030E+001
        6.006707082E-013
        9.062024030E+001
        4.612501758E-012
        7.376382350E-013
       -2.471155989E-012
        4.040746195E-012
        3.111348759E-013
       -2.769500201E-012
        3.731085082E-012
        7.344976453E-013
       -2.824933468E-012
       -2.733117471E+002
        1.289747248E-013
        2.733117471E+002
       -3.562326638E+001
        1.478522541E-013
        3.562326638E+001
        9.062024030E+001
        1.095593327E-012
       -9.062024030E+001
        5.065256563E+000
        4.140243283E-013
       -5.065256563E+000
       -9.674389684E+000
       -4.239211932E-013
        9.674389684E+000
       -1.747948673E+001
       -2.140954238E-012
        1.747948673E+001
        3.389708953E-012
        4.620728007E-013
       -1.559883920E-012
        3.246217449E-012
       -1.928780922E-013
       -3.677533054E-012
        3.813737982E-012
       -9.655397923E-013
       -8.535508817E-012
       -5.065256563E+000
        2.555280296E-013
        5.065256563E+000
        9.674389684E+000
        7.042598985E-013
       -9.674389684E+000
        1.747948673E+001
       -1.767696785E-012
       -1.747948673E+001
        2.951480799E+001
        1.735897226E+001
       -4.102450718E+001
       -2.911840437E-012
        2.167369928E-013
        2.423542978E-012
       -2.951480799E+001
       -1.735897226E+001
        4.102450718E+001
       -1.613146694E-012
        1.404706399E-012
        2.490909492E-012
        9.638693437E-013
        3.205522821E-013
       -1.200495908E-012
       -1.424793551E-012
       -4.744212284E-012
       -9.937615659E-012
       -2.951480799E+001
       -1.735897226E+001
        4.102450718E+001
        6.183835154E-013
       -4.178259770E-013
       -2.287726283E-012
        2.951480799E+001
        1.735897226E+001
       -4.102450718E+001
 SCALARS VonMises double 1
 LOOKUP_TABLE default
        1.256738352E+003
        6.504223164E+001
        1.256738352E+003
        1.813189696E+003
        1.070630516E+003
        1.813189696E+003
        2.290164636E+003
        2.150073017E+003
        2.290164636E+003
        1.139286615E+003
        1.457706864E+002
        1.139286615E+003
        1.849583942E+003
        1.096156133E+003
        1.849583942E+003
        2.291813419E+003
        2.046541580E+003
        2.291813419E+003
        1.256738352E+003
        6.504223164E+001
        1.256738352E+003
        1.813189696E+003
        1.070630516E+003
        1.813189696E+003
        2.290164636E+003
        2.150073017E+003
        2.290164636E+003
        1.183493501E+003
        1.799556861E+002
        1.183493501E+003
        9.262361831E+002
        2.230702366E+002
        9.262361831E+002
        6.455834376E+002
        1.866786549E+002
        6.455834376E+002
        1.154933207E+003
        1.493751323E+002
        1.154933207E+003
        9.149826301E+002
        1.659515194E+002
        9.149826301E+002
        5.797662358E+002
        1.907454030E+002
        5.797662358E+002
        1.183493501E+003
        1.799556861E+002
        1.183493501E+003
        9.262361831E+002
        2.230702366E+002
        9.262361831E+002
        6.455834376E+002
        1.866786549E+002
        6.455834376E+002
        1.993894308E+002
        3.305708023E+002
        6.510920207E+002
        3.479542379E+002
        1.304671727E+002
        3.584815365E+002
        1.993894308E+002
        3.305708023E+002
        6.510920207E+002
        3.680933891E+002
        3.253642095E+002
        6.302785969E+002
        3.868316635E+002
        1.773741727E+002
        1.686821717E+002
        3.680933891E+002
        3.253642095E+002
        6.302785969E+002
        1.993894308E+002
        3.305708023E+002
        6.510920207E+002
        3.479542379E+002
        1.304671727E+002
        3.584815365E+002
        1.993894308E+002
        3.305708023E+002
        6.510920207E+002
 SCALARS Epsilon_XX double 1
 LOOKUP_TABLE default
        0.000000000E+000
        0.000000000E+000
        0.000000000E+000
       -6.307292910E-009
        1.423282819E-023
        6.307292910E-009
       -5.311110067E-009
        1.599782518E-023
        5.311110067E-009
        0.000000000E+000
        0.000000000E+000
        0.000000000E+000
       -6.307292910E-009
       -5.019567724E-024
        6.307292910E-009
       -5.311110067E-009
       -4.151169739E-024
        5.311110067E-009
        0.000000000E+000
        0.000000000E+000
        0.000000000E+000
       -6.307292910E-009
       -2.427196364E-023
        6.307292910E-009
       -5.311110067E-009
       -2.430016466E-023
        5.311110067E-009
       -5.311110067E-009
        1.599782518E-023
        5.311110067E-009
       -4.063420320E-009
        3.489391074E-024
        4.063420320E-009
       -2.760231891E-009
        2.833244915E-023
        2.760231891E-009
       -5.311110067E-009
       -4.151169739E-024
        5.311110067E-009
       -4.063420320E-009
        1.660886301E-024
        4.063420320E-009
       -2.760231891E-009
        1.343318937E-023
        2.760231891E-009
       -5.311110067E-009
       -2.430016466E-023
        5.311110067E-009
       -4.063420320E-009
       -1.676184715E-025
        4.063420320E-009
       -2.760231891E-009
       -1.466070398E-024
        2.760231891E-009
       -2.153465077E-009
       -1.543421331E-009
       -2.760231891E-009
        1.170550196E-022
       -4.010936322E-023
        2.833244915E-023
        2.153465077E-009
        1.543421331E-009
        2.760231891E-009
       -2.153465077E-009
       -1.543421331E-009
       -2.760231891E-009
        4.077946284E-023
       -2.413413119E-023
        1.343318937E-023
        2.153465077E-009
        1.543421331E-009
        2.760231891E-009
       -2.153465077E-009
       -1.543421331E-009
       -2.760231891E-009
       -3.549609388E-023
       -8.158899151E-024
       -1.466070398E-024
        2.153465077E-009
        1.543421331E-009
        2.760231891E-009
 SCALARS Epsilon_YY double 1
 LOOKUP_TABLE default
        2.072746289E-008
       -5.572314174E-024
       -2.072746289E-008
        1.902212283E-008
       -3.284186200E-023
       -1.902212283E-008
        1.731678277E-008
       -6.011140982E-023
       -1.731678277E-008
        1.903349410E-008
        2.104291407E-023
       -1.903349410E-008
        1.935858986E-008
        2.330182296E-023
       -1.935858986E-008
        1.968368563E-008
        2.556073186E-023
       -1.968368563E-008
        2.072746289E-008
        4.738195762E-023
       -2.072746289E-008
        1.902212283E-008
        8.204785917E-023
       -1.902212283E-008
        1.731678277E-008
        1.167137607E-022
       -1.731678277E-008
        1.633016527E-008
       -8.337276855E-023
       -1.633016527E-008
        1.241136288E-008
       -3.360290636E-023
       -1.241136288E-008
        8.274484968E-009
       -2.800895140E-023
       -8.274484968E-009
        1.584425507E-008
        2.232903716E-023
       -1.584425507E-008
        1.236869249E-008
        2.563080345E-023
       -1.236869249E-008
        7.865332648E-009
        4.045672984E-023
       -7.865332648E-009
        1.633016527E-008
        8.860099554E-023
       -1.633016527E-008
        1.241136288E-008
        1.051168380E-022
       -1.241136288E-008
        8.274484968E-009
        6.064581865E-023
       -8.274484968E-009
        9.459381911E-010
        4.327351609E-009
        7.708765028E-009
       -3.417309323E-023
       -5.408789557E-024
        2.335551412E-023
       -9.459381911E-010
       -4.327351609E-009
       -7.708765028E-009
       -1.671344621E-010
        4.056508629E-009
        8.280151721E-009
       -5.549643962E-023
        6.053321900E-024
        6.760308342E-023
        1.671344621E-010
       -4.056508629E-009
       -8.280151721E-009
        9.459381911E-010
        4.327351609E-009
        7.708765028E-009
       -1.026193276E-022
       -9.888864974E-024
        8.284159769E-023
       -9.459381911E-010
       -4.327351609E-009
       -7.708765028E-009
 SCALARS Epsilon_ZZ double 1
 LOOKUP_TABLE default
        0.000000000E+000
        0.000000000E+000
        0.000000000E+000
       -7.569341286E-009
        1.158052858E-023
        7.569341286E-009
       -4.021322140E-009
        3.639594695E-023
        4.021322140E-009
        0.000000000E+000
        0.000000000E+000
        0.000000000E+000
       -7.661758787E-009
       -1.158052858E-023
        7.661758787E-009
       -4.665837237E-009
       -6.617444900E-024
        4.665837237E-009
        0.000000000E+000
        0.000000000E+000
        0.000000000E+000
       -7.569341286E-009
       -2.646977960E-023
        7.569341286E-009
       -4.021322140E-009
       -3.639594695E-023
        4.021322140E-009
       -4.021322140E-009
        3.639594695E-023
        4.021322140E-009
       -4.208977282E-009
        4.714929492E-023
        4.208977282E-009
       -3.024268999E-009
       -1.323488980E-023
        3.024268999E-009
       -4.665837237E-009
       -6.617444900E-024
        4.665837237E-009
       -4.179134531E-009
       -5.045801737E-023
        4.179134531E-009
       -2.103543630E-009
       -3.970466940E-023
        2.103543630E-009
       -4.021322140E-009
       -3.639594695E-023
        4.021322140E-009
       -4.208977282E-009
       -3.060568266E-023
        4.208977282E-009
       -3.024268999E-009
       -3.970466940E-023
        3.024268999E-009
       -1.363222858E-009
       -1.056035314E-009
       -3.024268999E-009
       -1.852884572E-022
        5.293955920E-023
       -1.323488980E-023
        1.363222858E-009
        1.056035314E-009
        3.024268999E-009
        4.496195277E-009
       -1.636619159E-009
       -2.103543630E-009
        0.000000000E+000
        0.000000000E+000
       -3.970466940E-023
       -4.496195277E-009
        1.636619159E-009
        2.103543630E-009
       -1.363222858E-009
       -1.056035314E-009
       -3.024268999E-009
        1.852884572E-022
        9.264422861E-023
       -3.970466940E-023
        1.363222858E-009
        1.056035314E-009
        3.024268999E-009
 SCALARS Epsilon_XZ double 1
 LOOKUP_TABLE default
        0.000000000E+000
        0.000000000E+000
        0.000000000E+000
        5.799453796E-009
        5.707036296E-009
        5.799453796E-009
        5.732589011E-009
        5.088073914E-009
        5.732589011E-009
        0.000000000E+000
        0.000000000E+000
        0.000000000E+000
        1.414478847E-022
        1.232499113E-022
        1.033975766E-022
        2.746239634E-022
        2.481541838E-022
        2.018320695E-022
        0.000000000E+000
        0.000000000E+000
        0.000000000E+000
       -5.799453796E-009
       -5.707036296E-009
       -5.799453796E-009
       -5.732589011E-009
       -5.088073914E-009
       -5.732589011E-009
        4.214789435E-010
       -2.230361536E-010
        4.214789435E-010
       -2.108304134E-011
        8.759709551E-012
       -2.108304134E-011
       -1.887857593E-010
        7.319396097E-010
       -1.887857593E-010
        8.778986907E-024
        6.617444900E-024
       -1.316260119E-023
       -2.438650474E-023
        5.790264288E-024
        1.988811947E-023
       -6.862618169E-024
        1.323488980E-023
        2.589722337E-023
       -4.214789435E-010
        2.230361536E-010
       -4.214789435E-010
        2.108304134E-011
       -8.759709551E-012
        2.108304134E-011
        1.887857593E-010
       -7.319396097E-010
        1.887857593E-010
        1.335908673E-009
        3.538366807E-010
       -1.887857593E-010
        7.195326809E-009
       -2.267471646E-010
        7.319396097E-010
        1.335908673E-009
        3.538366807E-010
       -1.887857593E-010
        8.899439064E-024
        1.098078299E-022
       -1.212571953E-023
        1.478372748E-022
        5.126977831E-023
        7.435174396E-024
        2.446646980E-022
       -1.617891395E-023
        2.348733408E-023
       -1.335908673E-009
       -3.538366807E-010
        1.887857593E-010
       -7.195326809E-009
        2.267471646E-010
       -7.319396097E-010
       -1.335908673E-009
       -3.538366807E-010
        1.887857593E-010
 SCALARS Epsilon_YZ double 1
 LOOKUP_TABLE default
        5.195672137E-009
       -1.368338615E-009
        5.195672137E-009
        2.279391017E-008
        2.178857964E-008
        2.279391017E-008
        4.039214820E-008
        4.494549788E-008
        4.039214820E-008
        9.561978681E-009
        3.066679203E-009
        9.561978681E-009
        2.422705742E-008
        2.306059811E-008
        2.422705742E-008
        3.889213617E-008
        4.305451702E-008
        3.889213617E-008
        5.195672137E-009
       -1.368338615E-009
        5.195672137E-009
        2.279391017E-008
        2.178857964E-008
        2.279391017E-008
        4.039214820E-008
        4.494549788E-008
        4.039214820E-008
        5.498774584E-009
        3.779277210E-009
        5.498774584E-009
        3.802322668E-009
        4.692875368E-009
        3.802322668E-009
        4.205612840E-009
        3.858478951E-009
        4.205612840E-009
        3.356209770E-009
        3.142508436E-009
        3.356209770E-009
        2.820748705E-009
        3.491237407E-009
        2.820748705E-009
        2.637656632E-009
        4.012843562E-009
        2.637656632E-009
        5.498774584E-009
        3.779277210E-009
        5.498774584E-009
        3.802322668E-009
        4.692875368E-009
        3.802322668E-009
        4.205612840E-009
        3.858478951E-009
        4.205612840E-009
        2.068533004E-009
        2.320084978E-009
        5.953050371E-009
        1.346083924E-009
        2.735346514E-009
        7.506022521E-009
        2.068533004E-009
        2.320084978E-009
        5.953050371E-009
        3.655166743E-009
        2.081608972E-009
        4.731694293E-009
        8.138046453E-009
        3.731543699E-009
        3.548684037E-009
        3.655166743E-009
        2.081608972E-009
        4.731694293E-009
        2.068533004E-009
        2.320084978E-009
        5.953050371E-009
        1.346083924E-009
        2.735346514E-009
        7.506022521E-009
        2.068533004E-009
        2.320084978E-009
        5.953050371E-009
 SCALARS Epsilon_XY double 1
 LOOKUP_TABLE default
        9.959030786E-009
        2.062672812E-023
       -9.959030786E-009
        1.298053268E-009
        7.212496289E-024
       -1.298053268E-009
       -3.302052592E-009
        2.188745320E-023
        3.302052592E-009
        1.680719819E-022
        2.687832473E-023
       -9.004486208E-023
        1.472381490E-022
        1.133724342E-023
       -1.009160347E-022
        1.359546071E-022
        2.676388680E-023
       -1.029359319E-022
       -9.959030786E-009
        4.699626960E-024
        9.959030786E-009
       -1.298053268E-009
        5.387493095E-024
        1.298053268E-009
        3.302052592E-009
        3.992161986E-023
       -3.302052592E-009
        1.845696227E-010
        1.508636593E-023
       -1.845696227E-010
       -3.525188570E-010
       -1.544699143E-023
        3.525188570E-010
       -6.369237631E-010
       -7.801285307E-023
        6.369237631E-010
        1.235154221E-022
        1.683717329E-023
       -5.683960587E-023
        1.182868276E-022
       -7.028160618E-024
       -1.340032592E-022
        1.389663429E-022
       -3.518268284E-023
       -3.110199103E-022
       -1.845696227E-010
        9.311021353E-024
        1.845696227E-010
        3.525188570E-010
        2.566207301E-023
       -3.525188570E-010
        6.369237631E-010
       -6.441196503E-023
       -6.369237631E-010
        1.075471086E-009
        6.325324138E-010
       -1.494865604E-009
       -1.061026789E-022
        7.897539738E-024
        8.830992222E-023
       -1.075471086E-009
       -6.325324138E-010
        1.494865604E-009
       -5.878041379E-023
        5.118519208E-023
        9.076464725E-023
        3.512181444E-023
        1.168039822E-023
       -4.374409749E-023
       -5.191713488E-023
       -1.728712969E-022
       -3.621103788E-022
       -1.075471086E-009
       -6.325324138E-010
        1.494865604E-009
        2.253287878E-023
       -1.522489176E-023
       -8.336098511E-023
        1.075471086E-009
        6.325324138E-010
       -1.494865604E-009
 SCALARS TEMPERATURE_[C] double 1
 LOOKUP_TABLE default
        0.000000000E+000
        0.000000000E+000
        0.000000000E+000
        0.000000000E+000
        0.000000000E+000
        0.000000000E+000
        0.000000000E+000
        0.000000000E+000
        0.000000000E+000
        0.000000000E+000
        0.000000000E+000
        0.000000000E+000
        0.000000000E+000
        0.000000000E+000
        0.000000000E+000
        0.000000000E+000
        0.000000000E+000
        0.000000000E+000
        0.000000000E+000
        0.000000000E+000
        0.000000000E+000
        0.000000000E+000
        0.000000000E+000
        0.000000000E+000
        0.000000000E+000
        0.000000000E+000
        0.000000000E+000
        0.000000000E+000
        0.000000000E+000
        0.000000000E+000
        0.000000000E+000
        0.000000000E+000
        0.000000000E+000
        0.000000000E+000
        0.000000000E+000
        0.000000000E+000
        0.000000000E+000
        0.000000000E+000
        0.000000000E+000
        0.000000000E+000
        0.000000000E+000
        0.000000000E+000
        0.000000000E+000
        0.000000000E+000
        0.000000000E+000
        0.000000000E+000
        0.000000000E+000
        0.000000000E+000
        0.000000000E+000
        0.000000000E+000
        0.000000000E+000
        0.000000000E+000
        0.000000000E+000
        0.000000000E+000
        0.000000000E+000
        0.000000000E+000
        0.000000000E+000
        0.000000000E+000
        0.000000000E+000
        0.000000000E+000
        0.000000000E+000
        0.000000000E+000
        0.000000000E+000
        0.000000000E+000
        0.000000000E+000
        0.000000000E+000
        0.000000000E+000
        0.000000000E+000
        0.000000000E+000
        0.000000000E+000
        0.000000000E+000
        0.000000000E+000
        0.000000000E+000
        0.000000000E+000
        0.000000000E+000
        0.000000000E+000
        0.000000000E+000
        0.000000000E+000
        0.000000000E+000
        0.000000000E+000
        0.000000000E+000
 SCALARS VOLTAGE[V] double 1
 LOOKUP_TABLE default
        0.000000000E+000
        0.000000000E+000
        0.000000000E+000
        0.000000000E+000
        0.000000000E+000
        0.000000000E+000
        0.000000000E+000
        0.000000000E+000
        0.000000000E+000
        0.000000000E+000
        0.000000000E+000
        0.000000000E+000
        0.000000000E+000
        0.000000000E+000
        0.000000000E+000
        0.000000000E+000
        0.000000000E+000
        0.000000000E+000
        0.000000000E+000
        0.000000000E+000
        0.000000000E+000
        0.000000000E+000
        0.000000000E+000
        0.000000000E+000
        0.000000000E+000
        0.000000000E+000
        0.000000000E+000
        0.000000000E+000
        0.000000000E+000
        0.000000000E+000
        0.000000000E+000
        0.000000000E+000
        0.000000000E+000
        0.000000000E+000
        0.000000000E+000
        0.000000000E+000
        0.000000000E+000
        0.000000000E+000
        0.000000000E+000
        0.000000000E+000
        0.000000000E+000
        0.000000000E+000
        0.000000000E+000
        0.000000000E+000
        0.000000000E+000
        0.000000000E+000
        0.000000000E+000
        0.000000000E+000
        0.000000000E+000
        0.000000000E+000
        0.000000000E+000
        0.000000000E+000
        0.000000000E+000
        0.000000000E+000
        0.000000000E+000
        0.000000000E+000
        0.000000000E+000
        0.000000000E+000
        0.000000000E+000
        0.000000000E+000
        0.000000000E+000
        0.000000000E+000
        0.000000000E+000
        0.000000000E+000
        0.000000000E+000
        0.000000000E+000
        0.000000000E+000
        0.000000000E+000
        0.000000000E+000
        0.000000000E+000
        0.000000000E+000
        0.000000000E+000
        0.000000000E+000
        0.000000000E+000
        0.000000000E+000
        0.000000000E+000
        0.000000000E+000
        0.000000000E+000
        0.000000000E+000
        0.000000000E+000
        0.000000000E+000
 SCALARS EX double 1
 LOOKUP_TABLE default
        0.000000000E+000
        0.000000000E+000
        0.000000000E+000
        0.000000000E+000
        0.000000000E+000
        0.000000000E+000
        0.000000000E+000
        0.000000000E+000
        0.000000000E+000
        0.000000000E+000
        0.000000000E+000
        0.000000000E+000
        0.000000000E+000
        0.000000000E+000
        0.000000000E+000
        0.000000000E+000
        0.000000000E+000
        0.000000000E+000
        0.000000000E+000
        0.000000000E+000
        0.000000000E+000
        0.000000000E+000
        0.000000000E+000
        0.000000000E+000
        0.000000000E+000
        0.000000000E+000
        0.000000000E+000
        0.000000000E+000
        0.000000000E+000
        0.000000000E+000
        0.000000000E+000
        0.000000000E+000
        0.000000000E+000
        0.000000000E+000
        0.000000000E+000
        0.000000000E+000
        0.000000000E+000
        0.000000000E+000
        0.000000000E+000
        0.000000000E+000
        0.000000000E+000
        0.000000000E+000
        0.000000000E+000
        0.000000000E+000
        0.000000000E+000
        0.000000000E+000
        0.000000000E+000
        0.000000000E+000
        0.000000000E+000
        0.000000000E+000
        0.000000000E+000
        0.000000000E+000
        0.000000000E+000
        0.000000000E+000
        0.000000000E+000
        0.000000000E+000
        0.000000000E+000
        0.000000000E+000
        0.000000000E+000
        0.000000000E+000
        0.000000000E+000
        0.000000000E+000
        0.000000000E+000
        0.000000000E+000
        0.000000000E+000
        0.000000000E+000
        0.000000000E+000
        0.000000000E+000
        0.000000000E+000
        0.000000000E+000
        0.000000000E+000
        0.000000000E+000
        0.000000000E+000
        0.000000000E+000
        0.000000000E+000
        0.000000000E+000
        0.000000000E+000
        0.000000000E+000
        0.000000000E+000
        0.000000000E+000
        0.000000000E+000
 SCALARS EY double 1
 LOOKUP_TABLE default
        0.000000000E+000
        0.000000000E+000
        0.000000000E+000
        0.000000000E+000
        0.000000000E+000
        0.000000000E+000
        0.000000000E+000
        0.000000000E+000
        0.000000000E+000
        0.000000000E+000
        0.000000000E+000
        0.000000000E+000
        0.000000000E+000
        0.000000000E+000
        0.000000000E+000
        0.000000000E+000
        0.000000000E+000
        0.000000000E+000
        0.000000000E+000
        0.000000000E+000
        0.000000000E+000
        0.000000000E+000
        0.000000000E+000
        0.000000000E+000
        0.000000000E+000
        0.000000000E+000
        0.000000000E+000
        0.000000000E+000
        0.000000000E+000
        0.000000000E+000
        0.000000000E+000
        0.000000000E+000
        0.000000000E+000
        0.000000000E+000
        0.000000000E+000
        0.000000000E+000
        0.000000000E+000
        0.000000000E+000
        0.000000000E+000
        0.000000000E+000
        0.000000000E+000
        0.000000000E+000
        0.000000000E+000
        0.000000000E+000
        0.000000000E+000
        0.000000000E+000
        0.000000000E+000
        0.000000000E+000
        0.000000000E+000
        0.000000000E+000
        0.000000000E+000
        0.000000000E+000
        0.000000000E+000
        0.000000000E+000
        0.000000000E+000
        0.000000000E+000
        0.000000000E+000
        0.000000000E+000
        0.000000000E+000
        0.000000000E+000
        0.000000000E+000
        0.000000000E+000
        0.000000000E+000
        0.000000000E+000
        0.000000000E+000
        0.000000000E+000
        0.000000000E+000
        0.000000000E+000
        0.000000000E+000
        0.000000000E+000
        0.000000000E+000
        0.000000000E+000
        0.000000000E+000
        0.000000000E+000
        0.000000000E+000
        0.000000000E+000
        0.000000000E+000
        0.000000000E+000
        0.000000000E+000
        0.000000000E+000
        0.000000000E+000
 SCALARS EZ double 1
 LOOKUP_TABLE default
        0.000000000E+000
        0.000000000E+000
        0.000000000E+000
        0.000000000E+000
        0.000000000E+000
        0.000000000E+000
        0.000000000E+000
        0.000000000E+000
        0.000000000E+000
        0.000000000E+000
        0.000000000E+000
        0.000000000E+000
        0.000000000E+000
        0.000000000E+000
        0.000000000E+000
        0.000000000E+000
        0.000000000E+000
        0.000000000E+000
        0.000000000E+000
        0.000000000E+000
        0.000000000E+000
        0.000000000E+000
        0.000000000E+000
        0.000000000E+000
        0.000000000E+000
        0.000000000E+000
        0.000000000E+000
        0.000000000E+000
        0.000000000E+000
        0.000000000E+000
        0.000000000E+000
        0.000000000E+000
        0.000000000E+000
        0.000000000E+000
        0.000000000E+000
        0.000000000E+000
        0.000000000E+000
        0.000000000E+000
        0.000000000E+000
        0.000000000E+000
        0.000000000E+000
        0.000000000E+000
        0.000000000E+000
        0.000000000E+000
        0.000000000E+000
        0.000000000E+000
        0.000000000E+000
        0.000000000E+000
        0.000000000E+000
        0.000000000E+000
        0.000000000E+000
        0.000000000E+000
        0.000000000E+000
        0.000000000E+000
        0.000000000E+000
        0.000000000E+000
        0.000000000E+000
        0.000000000E+000
        0.000000000E+000
        0.000000000E+000
        0.000000000E+000
        0.000000000E+000
        0.000000000E+000
        0.000000000E+000
        0.000000000E+000
        0.000000000E+000
        0.000000000E+000
        0.000000000E+000
        0.000000000E+000
        0.000000000E+000
        0.000000000E+000
        0.000000000E+000
        0.000000000E+000
        0.000000000E+000
        0.000000000E+000
        0.000000000E+000
        0.000000000E+000
        0.000000000E+000
        0.000000000E+000
        0.000000000E+000
        0.000000000E+000
 SCALARS Elem.Dimension double 1
 LOOKUP_TABLE default
        2.000000000E+000
        2.000000000E+000
        2.000000000E+000
        2.000000000E+000
        2.000000000E+000
        2.000000000E+000
        2.000000000E+000
        2.000000000E+000
        2.000000000E+000
        2.000000000E+000
        2.000000000E+000
        2.000000000E+000
        2.000000000E+000
        2.000000000E+000
        2.000000000E+000
        2.000000000E+000
        2.000000000E+000
        2.000000000E+000
        2.000000000E+000
        2.000000000E+000
        2.000000000E+000
        2.000000000E+000
        2.000000000E+000
        2.000000000E+000
        2.000000000E+000
        2.000000000E+000
        2.000000000E+000
        1.000000000E+000
        1.000000000E+000
        1.000000000E+000
        1.000000000E+000
        1.000000000E+000
        1.000000000E+000
        1.000000000E+000
        1.000000000E+000
        1.000000000E+000
        1.000000000E+000
        1.000000000E+000
        1.000000000E+000
        1.000000000E+000
        1.000000000E+000
        1.000000000E+000
        1.000000000E+000
        1.000000000E+000
        1.000000000E+000
        1.000000000E+000
        1.000000000E+000
        1.000000000E+000
        1.000000000E+000
        1.000000000E+000
        1.000000000E+000
        1.000000000E+000
        1.000000000E+000
        1.000000000E+000
        3.000000000E+000
        3.000000000E+000
        3.000000000E+000
        3.000000000E+000
        3.000000000E+000
        3.000000000E+000
        3.000000000E+000
        3.000000000E+000
        3.000000000E+000
        3.000000000E+000
        3.000000000E+000
        3.000000000E+000
        3.000000000E+000
        3.000000000E+000
        3.000000000E+000
        3.000000000E+000
        3.000000000E+000
        3.000000000E+000
        3.000000000E+000
        3.000000000E+000
        3.000000000E+000
        3.000000000E+000
        3.000000000E+000
        3.000000000E+000
        3.000000000E+000
        3.000000000E+000
        3.000000000E+000
 SCALARS ID_LAM double 1
 LOOKUP_TABLE default
        1.000000000E+000
        1.000000000E+000
        1.000000000E+000
        1.000000000E+000
        1.000000000E+000
        1.000000000E+000
        1.000000000E+000
        1.000000000E+000
        1.000000000E+000
        1.000000000E+000
        1.000000000E+000
        1.000000000E+000
        1.000000000E+000
        1.000000000E+000
        1.000000000E+000
        1.000000000E+000
        1.000000000E+000
        1.000000000E+000
        1.000000000E+000
        1.000000000E+000
        1.000000000E+000
        1.000000000E+000
        1.000000000E+000
        1.000000000E+000
        1.000000000E+000
        1.000000000E+000
        1.000000000E+000
        1.000000000E+000
        1.000000000E+000
        1.000000000E+000
        1.000000000E+000
        1.000000000E+000
        1.000000000E+000
        1.000000000E+000
        1.000000000E+000
        1.000000000E+000
        1.000000000E+000
        1.000000000E+000
        1.000000000E+000
        1.000000000E+000
        1.000000000E+000
        1.000000000E+000
        1.000000000E+000
        1.000000000E+000
        1.000000000E+000
        1.000000000E+000
        1.000000000E+000
        1.000000000E+000
        1.000000000E+000
        1.000000000E+000
        1.000000000E+000
        1.000000000E+000
        1.000000000E+000
        1.000000000E+000
        1.000000000E+000
        1.000000000E+000
        1.000000000E+000
        1.000000000E+000
        1.000000000E+000
        1.000000000E+000
        1.000000000E+000
        1.000000000E+000
        1.000000000E+000
        1.000000000E+000
        1.000000000E+000
        1.000000000E+000
        1.000000000E+000
        1.000000000E+000
        1.000000000E+000
        1.000000000E+000
        1.000000000E+000
        1.000000000E+000
        1.000000000E+000
        1.000000000E+000
        1.000000000E+000
        1.000000000E+000
        1.000000000E+000
        1.000000000E+000
        1.000000000E+000
        1.000000000E+000
        1.000000000E+000
 SCALARS ID_MAT double 1
 LOOKUP_TABLE default
        1.000000000E+000
        1.000000000E+000
        1.000000000E+000
        1.000000000E+000
        1.000000000E+000
        1.000000000E+000
        1.000000000E+000
        1.000000000E+000
        1.000000000E+000
        1.000000000E+000
        1.000000000E+000
        1.000000000E+000
        1.000000000E+000
        1.000000000E+000
        1.000000000E+000
        1.000000000E+000
        1.000000000E+000
        1.000000000E+000
        1.000000000E+000
        1.000000000E+000
        1.000000000E+000
        1.000000000E+000
        1.000000000E+000
        1.000000000E+000
        1.000000000E+000
        1.000000000E+000
        1.000000000E+000
        1.000000000E+000
        1.000000000E+000
        1.000000000E+000
        1.000000000E+000
        1.000000000E+000
        1.000000000E+000
        1.000000000E+000
        1.000000000E+000
        1.000000000E+000
        1.000000000E+000
        1.000000000E+000
        1.000000000E+000
        1.000000000E+000
        1.000000000E+000
        1.000000000E+000
        1.000000000E+000
        1.000000000E+000
        1.000000000E+000
        1.000000000E+000
        1.000000000E+000
        1.000000000E+000
        1.000000000E+000
        1.000000000E+000
        1.000000000E+000
        1.000000000E+000
        1.000000000E+000
        1.000000000E+000
        1.000000000E+000
        1.000000000E+000
        1.000000000E+000
        1.000000000E+000
        1.000000000E+000
        1.000000000E+000
        1.000000000E+000
        1.000000000E+000
        1.000000000E+000
        1.000000000E+000
        1.000000000E+000
        1.000000000E+000
        1.000000000E+000
        1.000000000E+000
        1.000000000E+000
        1.000000000E+000
        1.000000000E+000
        1.000000000E+000
        1.000000000E+000
        1.000000000E+000
        1.000000000E+000
        1.000000000E+000
        1.000000000E+000
        1.000000000E+000
        1.000000000E+000
        1.000000000E+000
        1.000000000E+000
 SCALARS DOF_SET double 1
 LOOKUP_TABLE default
        0.000000000E+000
        0.000000000E+000
        0.000000000E+000
        0.000000000E+000
        0.000000000E+000
        0.000000000E+000
        0.000000000E+000
        0.000000000E+000
        0.000000000E+000
        0.000000000E+000
        0.000000000E+000
        0.000000000E+000
        0.000000000E+000
        0.000000000E+000
        0.000000000E+000
        0.000000000E+000
        0.000000000E+000
        0.000000000E+000
        0.000000000E+000
        0.000000000E+000
        0.000000000E+000
        0.000000000E+000
        0.000000000E+000
        0.000000000E+000
        0.000000000E+000
        0.000000000E+000
        0.000000000E+000
        0.000000000E+000
        0.000000000E+000
        0.000000000E+000
        0.000000000E+000
        0.000000000E+000
        0.000000000E+000
        0.000000000E+000
        0.000000000E+000
        0.000000000E+000
        0.000000000E+000
        0.000000000E+000
        0.000000000E+000
        0.000000000E+000
        0.000000000E+000
        0.000000000E+000
        0.000000000E+000
        0.000000000E+000
        0.000000000E+000
        0.000000000E+000
        0.000000000E+000
        0.000000000E+000
        0.000000000E+000
        0.000000000E+000
        0.000000000E+000
        0.000000000E+000
        0.000000000E+000
        0.000000000E+000
        0.000000000E+000
        0.000000000E+000
        0.000000000E+000
        0.000000000E+000
        0.000000000E+000
        0.000000000E+000
        0.000000000E+000
        0.000000000E+000
        0.000000000E+000
        0.000000000E+000
        0.000000000E+000
        0.000000000E+000
        0.000000000E+000
        0.000000000E+000
        0.000000000E+000
        0.000000000E+000
        0.000000000E+000
        0.000000000E+000
        0.000000000E+000
        0.000000000E+000
        0.000000000E+000
        0.000000000E+000
        0.000000000E+000
        0.000000000E+000
        0.000000000E+000
        0.000000000E+000
        0.000000000E+000
 SCALARS HYGRO double 1
 LOOKUP_TABLE default
        0.000000000E+000
        0.000000000E+000
        0.000000000E+000
        0.000000000E+000
        0.000000000E+000
        0.000000000E+000
        0.000000000E+000
        0.000000000E+000
        0.000000000E+000
        0.000000000E+000
        0.000000000E+000
        0.000000000E+000
        0.000000000E+000
        0.000000000E+000
        0.000000000E+000
        0.000000000E+000
        0.000000000E+000
        0.000000000E+000
        0.000000000E+000
        0.000000000E+000
        0.000000000E+000
        0.000000000E+000
        0.000000000E+000
        0.000000000E+000
        0.000000000E+000
        0.000000000E+000
        0.000000000E+000
        0.000000000E+000
        0.000000000E+000
        0.000000000E+000
        0.000000000E+000
        0.000000000E+000
        0.000000000E+000
        0.000000000E+000
        0.000000000E+000
        0.000000000E+000
        0.000000000E+000
        0.000000000E+000
        0.000000000E+000
        0.000000000E+000
        0.000000000E+000
        0.000000000E+000
        0.000000000E+000
        0.000000000E+000
        0.000000000E+000
        0.000000000E+000
        0.000000000E+000
        0.000000000E+000
        0.000000000E+000
        0.000000000E+000
        0.000000000E+000
        0.000000000E+000
        0.000000000E+000
        0.000000000E+000
        0.000000000E+000
        0.000000000E+000
        0.000000000E+000
        0.000000000E+000
        0.000000000E+000
        0.000000000E+000
        0.000000000E+000
        0.000000000E+000
        0.000000000E+000
        0.000000000E+000
        0.000000000E+000
        0.000000000E+000
        0.000000000E+000
        0.000000000E+000
        0.000000000E+000
        0.000000000E+000
        0.000000000E+000
        0.000000000E+000
        0.000000000E+000
        0.000000000E+000
        0.000000000E+000
        0.000000000E+000
        0.000000000E+000
        0.000000000E+000
        0.000000000E+000
        0.000000000E+000
        0.000000000E+000
