# vtk DataFile Version 2.0
  Generated by MUL2 - Zappino
ASCII
DATASET UNSTRUCTURED_GRID
POINTS      108 double
    0.000000000    0.000000000   -0.000100000
    0.000000000    0.000000000   -0.000050000
    0.000000000    0.000000000    0.000000000
    0.000000000    0.005000000   -0.000100000
    0.000000000    0.005000000   -0.000050000
    0.000000000    0.005000000    0.000000000
    0.000000000    0.010000000   -0.000100000
    0.000000000    0.010000000   -0.000050000
    0.000000000    0.010000000    0.000000000
    0.002500000    0.000000000   -0.000100000
    0.002500000    0.000000000   -0.000050000
    0.002500000    0.000000000    0.000000000
    0.002500000    0.005000000   -0.000100000
    0.002500000    0.005000000   -0.000050000
    0.002500000    0.005000000    0.000000000
    0.002500000    0.010000000   -0.000100000
    0.002500000    0.010000000   -0.000050000
    0.002500000    0.010000000    0.000000000
    0.005000000    0.000000000   -0.000100000
    0.005000000    0.000000000   -0.000050000
    0.005000000    0.000000000    0.000000000
    0.005000000    0.005000000   -0.000100000
    0.005000000    0.005000000   -0.000050000
    0.005000000    0.005000000    0.000000000
    0.005000000    0.010000000   -0.000100000
    0.005000000    0.010000000   -0.000050000
    0.005000000    0.010000000    0.000000000
    0.000000000    0.000000000    0.000000000
    0.000000000    0.000000000    0.000050000
    0.000000000    0.000000000    0.000100000
    0.000000000    0.005000000    0.000000000
    0.000000000    0.005000000    0.000050000
    0.000000000    0.005000000    0.000100000
    0.000000000    0.010000000    0.000000000
    0.000000000    0.010000000    0.000050000
    0.000000000    0.010000000    0.000100000
    0.002500000    0.000000000    0.000000000
    0.002500000    0.000000000    0.000050000
    0.002500000    0.000000000    0.000100000
    0.002500000    0.005000000    0.000000000
    0.002500000    0.005000000    0.000050000
    0.002500000    0.005000000    0.000100000
    0.002500000    0.010000000    0.000000000
    0.002500000    0.010000000    0.000050000
    0.002500000    0.010000000    0.000100000
    0.005000000    0.000000000    0.000000000
    0.005000000    0.000000000    0.000050000
    0.005000000    0.000000000    0.000100000
    0.005000000    0.005000000    0.000000000
    0.005000000    0.005000000    0.000050000
    0.005000000    0.005000000    0.000100000
    0.005000000    0.010000000    0.000000000
    0.005000000    0.010000000    0.000050000
    0.005000000    0.010000000    0.000100000
    0.000000000    0.010000000   -0.000100000
    0.000000000    0.010000000   -0.000050000
    0.000000000    0.010000000    0.000000000
    0.000000000    0.015000000   -0.000100000
    0.000000000    0.015000000   -0.000050000
    0.000000000    0.015000000    0.000000000
    0.000000000    0.020000000   -0.000100000
    0.000000000    0.020000000   -0.000050000
    0.000000000    0.020000000    0.000000000
    0.002500000    0.010000000   -0.000100000
    0.002500000    0.010000000   -0.000050000
    0.002500000    0.010000000    0.000000000
    0.002500000    0.015000000   -0.000100000
    0.002500000    0.015000000   -0.000050000
    0.002500000    0.015000000    0.000000000
    0.002500000    0.020000000   -0.000100000
    0.002500000    0.020000000   -0.000050000
    0.002500000    0.020000000    0.000000000
    0.005000000    0.010000000   -0.000100000
    0.005000000    0.010000000   -0.000050000
    0.005000000    0.010000000    0.000000000
    0.005000000    0.015000000   -0.000100000
    0.005000000    0.015000000   -0.000050000
    0.005000000    0.015000000    0.000000000
    0.005000000    0.020000000   -0.000100000
    0.005000000    0.020000000   -0.000050000
    0.005000000    0.020000000    0.000000000
    0.000000000    0.010000000    0.000000000
    0.000000000    0.010000000    0.000050000
    0.000000000    0.010000000    0.000100000
    0.000000000    0.015000000    0.000000000
    0.000000000    0.015000000    0.000050000
    0.000000000    0.015000000    0.000100000
    0.000000000    0.020000000    0.000000000
    0.000000000    0.020000000    0.000050000
    0.000000000    0.020000000    0.000100000
    0.002500000    0.010000000    0.000000000
    0.002500000    0.010000000    0.000050000
    0.002500000    0.010000000    0.000100000
    0.002500000    0.015000000    0.000000000
    0.002500000    0.015000000    0.000050000
    0.002500000    0.015000000    0.000100000
    0.002500000    0.020000000    0.000000000
    0.002500000    0.020000000    0.000050000
    0.002500000    0.020000000    0.000100000
    0.005000000    0.010000000    0.000000000
    0.005000000    0.010000000    0.000050000
    0.005000000    0.010000000    0.000100000
    0.005000000    0.015000000    0.000000000
    0.005000000    0.015000000    0.000050000
    0.005000000    0.015000000    0.000100000
    0.005000000    0.020000000    0.000000000
    0.005000000    0.020000000    0.000050000
    0.005000000    0.020000000    0.000100000
         
 CELLS       4      84
       20        0       18       24        6        2       20       26        8        9       21       15        3       11       23       17        5        1       19       25        7
       20       27       45       51       33       29       47       53       35       36       48       42       30       38       50       44       32       28       46       52       34
       20       54       72       78       60       56       74       80       62       63       75       69       57       65       77       71       59       55       73       79       61
       20       81       99      105       87       83      101      107       89       90      102       96       84       92      104       98       86       82      100      106       88
         
  CELL_TYPES        4
25
25
25
25
POINT_DATA      108
VECTORS Displacements double
        0.000000000E+000        0.000000000E+000        0.000000000E+000
        0.000000000E+000        0.000000000E+000        0.000000000E+000
        0.000000000E+000        0.000000000E+000        0.000000000E+000
       -4.222907382E-005       -6.442421263E-004       -1.648372636E-002
       -2.111453691E-005       -3.221210632E-004       -1.648259644E-002
       -4.666588265E-015       -3.092781607E-015       -1.648146651E-002
        5.173540320E-005       -1.195515496E-003       -6.288167197E-002
        2.586770159E-005       -5.977577479E-004       -6.288131374E-002
       -1.456952533E-014       -4.745286927E-015       -6.288095551E-002
        0.000000000E+000        0.000000000E+000        0.000000000E+000
        0.000000000E+000        0.000000000E+000        0.000000000E+000
        0.000000000E+000        0.000000000E+000        0.000000000E+000
        4.741734832E-005       -6.316095952E-004       -1.641116379E-002
        2.370867416E-005       -3.158047976E-004       -1.641012419E-002
       -4.457407134E-015        3.402497381E-016       -1.640908460E-002
        1.193377918E-004       -1.117861974E-003       -6.075197195E-002
        5.966889587E-005       -5.589309868E-004       -6.075162729E-002
       -1.470291283E-014        8.836631955E-016       -6.075128263E-002
        0.000000000E+000        0.000000000E+000        0.000000000E+000
        0.000000000E+000        0.000000000E+000        0.000000000E+000
        0.000000000E+000        0.000000000E+000        0.000000000E+000
        1.337730438E-004       -5.677712209E-004       -1.414081727E-002
        6.688652189E-005       -2.838856105E-004       -1.413974283E-002
       -4.819614259E-015        3.854109698E-015       -1.413866840E-002
        1.909973776E-004       -1.142698553E-003       -5.687982492E-002
        9.549868880E-005       -5.713492765E-004       -5.687939774E-002
       -1.479220193E-014        6.315595279E-015       -5.687897057E-002
        0.000000000E+000        0.000000000E+000        0.000000000E+000
        0.000000000E+000        0.000000000E+000        0.000000000E+000
        0.000000000E+000        0.000000000E+000        0.000000000E+000
       -4.666588265E-015       -3.092781607E-015       -1.648146651E-002
        2.111453690E-005        3.221210632E-004       -1.648259644E-002
        4.222907381E-005        6.442421263E-004       -1.648372636E-002
       -1.456952533E-014       -4.745286927E-015       -6.288095551E-002
       -2.586770162E-005        5.977577479E-004       -6.288131374E-002
       -5.173540323E-005        1.195515496E-003       -6.288167197E-002
        0.000000000E+000        0.000000000E+000        0.000000000E+000
        0.000000000E+000        0.000000000E+000        0.000000000E+000
        0.000000000E+000        0.000000000E+000        0.000000000E+000
       -4.457407134E-015        3.402497381E-016       -1.640908460E-002
       -2.370867417E-005        3.158047976E-004       -1.641012419E-002
       -4.741734833E-005        6.316095952E-004       -1.641116379E-002
       -1.470291283E-014        8.836631955E-016       -6.075128263E-002
       -5.966889590E-005        5.589309868E-004       -6.075162729E-002
       -1.193377918E-004        1.117861974E-003       -6.075197195E-002
        0.000000000E+000        0.000000000E+000        0.000000000E+000
        0.000000000E+000        0.000000000E+000        0.000000000E+000
        0.000000000E+000        0.000000000E+000        0.000000000E+000
       -4.819614259E-015        3.854109698E-015       -1.413866840E-002
       -6.688652190E-005        2.838856105E-004       -1.413974283E-002
       -1.337730438E-004        5.677712209E-004       -1.414081727E-002
       -1.479220193E-014        6.315595279E-015       -5.687897057E-002
       -9.549868883E-005        5.713492765E-004       -5.687939774E-002
       -1.909973777E-004        1.142698553E-003       -5.687982492E-002
        5.173540320E-005       -1.195515496E-003       -6.288167197E-002
        2.586770159E-005       -5.977577479E-004       -6.288131374E-002
       -1.456952533E-014       -4.745286927E-015       -6.288095551E-002
        1.516442120E-004       -1.457550188E-003       -1.297487395E-001
        7.582210598E-005       -7.287750942E-004       -1.297484430E-001
       -2.676764942E-014       -4.500591159E-015       -1.297481466E-001
        2.591760969E-004       -1.592261783E-003       -2.065392565E-001
        1.295880484E-004       -7.961308917E-004       -2.065390786E-001
       -3.765048242E-014       -3.711689548E-015       -2.065389008E-001
        1.193377918E-004       -1.117861974E-003       -6.075197195E-002
        5.966889587E-005       -5.589309868E-004       -6.075162729E-002
       -1.470291283E-014        8.836631955E-016       -6.075128263E-002
        1.833444823E-004       -1.434282280E-003       -1.255586496E-001
        9.167224114E-005       -7.171411398E-004       -1.255583130E-001
       -2.665034716E-014        1.264368355E-015       -1.255579763E-001
        2.496317272E-004       -1.510726584E-003       -2.001838672E-001
        1.248158636E-004       -7.553632922E-004       -2.001840243E-001
       -3.765434857E-014        1.360837660E-015       -2.001841813E-001
        1.909973776E-004       -1.142698553E-003       -5.687982492E-002
        9.549868880E-005       -5.713492765E-004       -5.687939774E-002
       -1.479220193E-014        6.315595279E-015       -5.687897057E-002
        2.136273849E-004       -1.388664407E-003       -1.205940303E-001
        1.068136924E-004       -6.943322037E-004       -1.205937582E-001
       -2.671521616E-014        6.951488683E-015       -1.205934862E-001
        2.438269986E-004       -1.531044298E-003       -1.940225163E-001
        1.219134993E-004       -7.655221490E-004       -1.940222717E-001
       -3.784153284E-014        6.484176578E-015       -1.940220271E-001
       -1.456952533E-014       -4.745286927E-015       -6.288095551E-002
       -2.586770162E-005        5.977577479E-004       -6.288131374E-002
       -5.173540323E-005        1.195515496E-003       -6.288167197E-002
       -2.676764942E-014       -4.500591159E-015       -1.297481466E-001
       -7.582210603E-005        7.287750942E-004       -1.297484430E-001
       -1.516442120E-004        1.457550188E-003       -1.297487395E-001
       -3.765048242E-014       -3.711689548E-015       -2.065389008E-001
       -1.295880485E-004        7.961308917E-004       -2.065390786E-001
       -2.591760970E-004        1.592261783E-003       -2.065392565E-001
       -1.470291283E-014        8.836631955E-016       -6.075128263E-002
       -5.966889590E-005        5.589309868E-004       -6.075162729E-002
       -1.193377918E-004        1.117861974E-003       -6.075197195E-002
       -2.665034716E-014        1.264368355E-015       -1.255579763E-001
       -9.167224119E-005        7.171411398E-004       -1.255583130E-001
       -1.833444824E-004        1.434282280E-003       -1.255586496E-001
       -3.765434857E-014        1.360837660E-015       -2.001841813E-001
       -1.248158637E-004        7.553632922E-004       -2.001840243E-001
       -2.496317273E-004        1.510726584E-003       -2.001838672E-001
       -1.479220193E-014        6.315595279E-015       -5.687897057E-002
       -9.549868883E-005        5.713492765E-004       -5.687939774E-002
       -1.909973777E-004        1.142698553E-003       -5.687982492E-002
       -2.671521616E-014        6.951488683E-015       -1.205934862E-001
       -1.068136925E-004        6.943322037E-004       -1.205937582E-001
       -2.136273850E-004        1.388664407E-003       -1.205940303E-001
       -3.784153284E-014        6.484176578E-015       -1.940220271E-001
       -1.219134994E-004        7.655221490E-004       -1.940222717E-001
       -2.438269987E-004        1.531044298E-003       -1.940225163E-001
VECTORS  ElectricDisplacements double
        0.000000000E+000        0.000000000E+000        0.000000000E+000
        0.000000000E+000        0.000000000E+000        0.000000000E+000
        0.000000000E+000        0.000000000E+000        0.000000000E+000
        0.000000000E+000        0.000000000E+000        0.000000000E+000
        0.000000000E+000        0.000000000E+000        0.000000000E+000
        0.000000000E+000        0.000000000E+000        0.000000000E+000
        0.000000000E+000        0.000000000E+000        0.000000000E+000
        0.000000000E+000        0.000000000E+000        0.000000000E+000
        0.000000000E+000        0.000000000E+000        0.000000000E+000
        0.000000000E+000        0.000000000E+000        0.000000000E+000
        0.000000000E+000        0.000000000E+000        0.000000000E+000
        0.000000000E+000        0.000000000E+000        0.000000000E+000
        0.000000000E+000        0.000000000E+000        0.000000000E+000
        0.000000000E+000        0.000000000E+000        0.000000000E+000
        0.000000000E+000        0.000000000E+000        0.000000000E+000
        0.000000000E+000        0.000000000E+000        0.000000000E+000
        0.000000000E+000        0.000000000E+000        0.000000000E+000
        0.000000000E+000        0.000000000E+000        0.000000000E+000
        0.000000000E+000        0.000000000E+000        0.000000000E+000
        0.000000000E+000        0.000000000E+000        0.000000000E+000
        0.000000000E+000        0.000000000E+000        0.000000000E+000
        0.000000000E+000        0.000000000E+000        0.000000000E+000
        0.000000000E+000        0.000000000E+000        0.000000000E+000
        0.000000000E+000        0.000000000E+000        0.000000000E+000
        0.000000000E+000        0.000000000E+000        0.000000000E+000
        0.000000000E+000        0.000000000E+000        0.000000000E+000
        0.000000000E+000        0.000000000E+000        0.000000000E+000
        0.000000000E+000        0.000000000E+000        0.000000000E+000
        0.000000000E+000        0.000000000E+000        0.000000000E+000
        0.000000000E+000        0.000000000E+000        0.000000000E+000
        0.000000000E+000        0.000000000E+000        0.000000000E+000
        0.000000000E+000        0.000000000E+000        0.000000000E+000
        0.000000000E+000        0.000000000E+000        0.000000000E+000
        0.000000000E+000        0.000000000E+000        0.000000000E+000
        0.000000000E+000        0.000000000E+000        0.000000000E+000
        0.000000000E+000        0.000000000E+000        0.000000000E+000
        0.000000000E+000        0.000000000E+000        0.000000000E+000
        0.000000000E+000        0.000000000E+000        0.000000000E+000
        0.000000000E+000        0.000000000E+000        0.000000000E+000
        0.000000000E+000        0.000000000E+000        0.000000000E+000
        0.000000000E+000        0.000000000E+000        0.000000000E+000
        0.000000000E+000        0.000000000E+000        0.000000000E+000
        0.000000000E+000        0.000000000E+000        0.000000000E+000
        0.000000000E+000        0.000000000E+000        0.000000000E+000
        0.000000000E+000        0.000000000E+000        0.000000000E+000
        0.000000000E+000        0.000000000E+000        0.000000000E+000
        0.000000000E+000        0.000000000E+000        0.000000000E+000
        0.000000000E+000        0.000000000E+000        0.000000000E+000
        0.000000000E+000        0.000000000E+000        0.000000000E+000
        0.000000000E+000        0.000000000E+000        0.000000000E+000
        0.000000000E+000        0.000000000E+000        0.000000000E+000
        0.000000000E+000        0.000000000E+000        0.000000000E+000
        0.000000000E+000        0.000000000E+000        0.000000000E+000
        0.000000000E+000        0.000000000E+000        0.000000000E+000
        0.000000000E+000        0.000000000E+000        0.000000000E+000
        0.000000000E+000        0.000000000E+000        0.000000000E+000
        0.000000000E+000        0.000000000E+000        0.000000000E+000
        0.000000000E+000        0.000000000E+000        0.000000000E+000
        0.000000000E+000        0.000000000E+000        0.000000000E+000
        0.000000000E+000        0.000000000E+000        0.000000000E+000
        0.000000000E+000        0.000000000E+000        0.000000000E+000
        0.000000000E+000        0.000000000E+000        0.000000000E+000
        0.000000000E+000        0.000000000E+000        0.000000000E+000
        0.000000000E+000        0.000000000E+000        0.000000000E+000
        0.000000000E+000        0.000000000E+000        0.000000000E+000
        0.000000000E+000        0.000000000E+000        0.000000000E+000
        0.000000000E+000        0.000000000E+000        0.000000000E+000
        0.000000000E+000        0.000000000E+000        0.000000000E+000
        0.000000000E+000        0.000000000E+000        0.000000000E+000
        0.000000000E+000        0.000000000E+000        0.000000000E+000
        0.000000000E+000        0.000000000E+000        0.000000000E+000
        0.000000000E+000        0.000000000E+000        0.000000000E+000
        0.000000000E+000        0.000000000E+000        0.000000000E+000
        0.000000000E+000        0.000000000E+000        0.000000000E+000
        0.000000000E+000        0.000000000E+000        0.000000000E+000
        0.000000000E+000        0.000000000E+000        0.000000000E+000
        0.000000000E+000        0.000000000E+000        0.000000000E+000
        0.000000000E+000        0.000000000E+000        0.000000000E+000
        0.000000000E+000        0.000000000E+000        0.000000000E+000
        0.000000000E+000        0.000000000E+000        0.000000000E+000
        0.000000000E+000        0.000000000E+000        0.000000000E+000
        0.000000000E+000        0.000000000E+000        0.000000000E+000
        0.000000000E+000        0.000000000E+000        0.000000000E+000
        0.000000000E+000        0.000000000E+000        0.000000000E+000
        0.000000000E+000        0.000000000E+000        0.000000000E+000
        0.000000000E+000        0.000000000E+000        0.000000000E+000
        0.000000000E+000        0.000000000E+000        0.000000000E+000
        0.000000000E+000        0.000000000E+000        0.000000000E+000
        0.000000000E+000        0.000000000E+000        0.000000000E+000
        0.000000000E+000        0.000000000E+000        0.000000000E+000
        0.000000000E+000        0.000000000E+000        0.000000000E+000
        0.000000000E+000        0.000000000E+000        0.000000000E+000
        0.000000000E+000        0.000000000E+000        0.000000000E+000
        0.000000000E+000        0.000000000E+000        0.000000000E+000
        0.000000000E+000        0.000000000E+000        0.000000000E+000
        0.000000000E+000        0.000000000E+000        0.000000000E+000
        0.000000000E+000        0.000000000E+000        0.000000000E+000
        0.000000000E+000        0.000000000E+000        0.000000000E+000
        0.000000000E+000        0.000000000E+000        0.000000000E+000
        0.000000000E+000        0.000000000E+000        0.000000000E+000
        0.000000000E+000        0.000000000E+000        0.000000000E+000
        0.000000000E+000        0.000000000E+000        0.000000000E+000
        0.000000000E+000        0.000000000E+000        0.000000000E+000
        0.000000000E+000        0.000000000E+000        0.000000000E+000
        0.000000000E+000        0.000000000E+000        0.000000000E+000
        0.000000000E+000        0.000000000E+000        0.000000000E+000
        0.000000000E+000        0.000000000E+000        0.000000000E+000
        0.000000000E+000        0.000000000E+000        0.000000000E+000
        VECTORS SHEAR double
       -1.183060844E+009        0.000000000E+000        1.283819546E+008
       -5.915304218E+008        0.000000000E+000        1.400661040E+008
       -5.362441524E-003        0.000000000E+000        1.517502534E+008
        2.856200200E+008        0.000000000E+000       -1.948150353E+007
        1.428100100E+008        0.000000000E+000       -1.847570138E+007
       -4.826254427E-003        0.000000000E+000       -1.746989924E+007
        1.754300884E+009        0.000000000E+000       -1.673449617E+008
        8.771504418E+008        0.000000000E+000       -1.770175068E+008
       -4.290067331E-003        0.000000000E+000       -1.866900519E+008
        3.768245854E+008        0.000000000E+000       -1.332043309E+008
        1.884122927E+008        0.000000000E+000       -1.224965587E+008
       -4.566404594E-003        0.000000000E+000       -1.117887866E+008
        6.726692988E+008        0.000000000E+000       -3.827646118E+007
        3.363346494E+008        0.000000000E+000       -3.730876187E+007
       -4.902457120E-003        0.000000000E+000       -3.634106255E+007
        9.685140122E+008        0.000000000E+000        5.665140854E+007
        4.842570061E+008        0.000000000E+000        4.787903501E+007
       -5.238509647E-003        0.000000000E+000        3.910666149E+007
        1.936710014E+009        0.000000000E+000        2.190527351E+008
        9.683550072E+008        0.000000000E+000        2.299201366E+008
       -3.770367663E-003        0.000000000E+000        2.407875381E+008
        1.059718578E+009        0.000000000E+000        4.651137934E+007
        5.298592888E+008        0.000000000E+000        4.771075411E+007
       -4.978659813E-003        0.000000000E+000        4.891012889E+007
        1.827271408E+008        0.000000000E+000       -1.260299765E+008
        9.136357042E+007        0.000000000E+000       -1.344986284E+008
       -6.186951962E-003        0.000000000E+000       -1.429672804E+008
       -5.362441524E-003        0.000000000E+000        1.517502534E+008
        5.915304218E+008        0.000000000E+000        1.400661040E+008
        1.183060844E+009        0.000000000E+000        1.283819546E+008
       -4.826254427E-003        0.000000000E+000       -1.746989924E+007
       -1.428100100E+008        0.000000000E+000       -1.847570138E+007
       -2.856200200E+008        0.000000000E+000       -1.948150353E+007
       -4.290067331E-003        0.000000000E+000       -1.866900519E+008
       -8.771504418E+008        0.000000000E+000       -1.770175068E+008
       -1.754300884E+009        0.000000000E+000       -1.673449617E+008
       -4.566404594E-003        0.000000000E+000       -1.117887866E+008
       -1.884122927E+008        0.000000000E+000       -1.224965587E+008
       -3.768245854E+008        0.000000000E+000       -1.332043309E+008
       -4.902457120E-003        0.000000000E+000       -3.634106255E+007
       -3.363346494E+008        0.000000000E+000       -3.730876187E+007
       -6.726692988E+008        0.000000000E+000       -3.827646118E+007
       -5.238509647E-003        0.000000000E+000        3.910666149E+007
       -4.842570061E+008        0.000000000E+000        4.787903501E+007
       -9.685140122E+008        0.000000000E+000        5.665140854E+007
       -3.770367663E-003        0.000000000E+000        2.407875381E+008
       -9.683550072E+008        0.000000000E+000        2.299201366E+008
       -1.936710014E+009        0.000000000E+000        2.190527351E+008
       -4.978659813E-003        0.000000000E+000        4.891012889E+007
       -5.298592888E+008        0.000000000E+000        4.771075411E+007
       -1.059718578E+009        0.000000000E+000        4.651137934E+007
       -6.186951962E-003        0.000000000E+000       -1.429672804E+008
       -9.136357043E+007        0.000000000E+000       -1.344986284E+008
       -1.827271409E+008        0.000000000E+000       -1.260299765E+008
        1.119567036E+009        0.000000000E+000       -4.220691373E+007
        5.597835179E+008        0.000000000E+000       -4.239435944E+007
       -4.113021365E-003        0.000000000E+000       -4.258180515E+007
        1.162481492E+009        0.000000000E+000       -6.911770759E+007
        5.812407459E+008        0.000000000E+000       -6.962423138E+007
       -9.688980139E-004        0.000000000E+000       -7.013075517E+007
        1.205395948E+009        0.000000000E+000       -9.602850144E+007
        6.026979739E+008        0.000000000E+000       -9.685410331E+007
        2.175225337E-003        0.000000000E+000       -9.767970519E+007
        6.839389209E+008        0.000000000E+000       -2.644327007E+007
        3.419694604E+008        0.000000000E+000       -2.512404010E+007
       -4.860695547E-003        0.000000000E+000       -2.380481012E+007
        7.302813126E+008        0.000000000E+000       -9.173539247E+006
        3.651406563E+008        0.000000000E+000       -1.058225698E+007
       -1.780963948E-003        0.000000000E+000       -1.199097471E+007
        7.766237042E+008        0.000000000E+000        8.096191578E+006
        3.883118521E+008        0.000000000E+000        3.959526140E+006
        1.298767651E-003        0.000000000E+000       -1.771392975E+005
        2.483108059E+008        0.000000000E+000        2.412038049E+007
        1.241554030E+008        0.000000000E+000        2.289052559E+007
       -5.608369729E-003        0.000000000E+000        2.166067068E+007
        2.980811333E+008        0.000000000E+000       -7.534112068E+006
        1.490405667E+008        0.000000000E+000       -8.046737209E+006
       -2.593029881E-003        0.000000000E+000       -8.559362350E+006
        3.478514607E+008        0.000000000E+000       -3.918860463E+007
        1.739257303E+008        0.000000000E+000       -3.898400000E+007
        4.223099657E-004        0.000000000E+000       -3.877939538E+007
       -4.113021365E-003        0.000000000E+000       -4.258180515E+007
       -5.597835179E+008        0.000000000E+000       -4.239435944E+007
       -1.119567036E+009        0.000000000E+000       -4.220691373E+007
       -9.688980139E-004        0.000000000E+000       -7.013075517E+007
       -5.812407459E+008        0.000000000E+000       -6.962423138E+007
       -1.162481492E+009        0.000000000E+000       -6.911770759E+007
        2.175225337E-003        0.000000000E+000       -9.767970519E+007
       -6.026979739E+008        0.000000000E+000       -9.685410331E+007
       -1.205395948E+009        0.000000000E+000       -9.602850144E+007
       -4.860695547E-003        0.000000000E+000       -2.380481012E+007
       -3.419694605E+008        0.000000000E+000       -2.512404010E+007
       -6.839389209E+008        0.000000000E+000       -2.644327007E+007
       -1.780963948E-003        0.000000000E+000       -1.199097471E+007
       -3.651406563E+008        0.000000000E+000       -1.058225698E+007
       -7.302813126E+008        0.000000000E+000       -9.173539247E+006
        1.298767651E-003        0.000000000E+000       -1.771392972E+005
       -3.883118521E+008        0.000000000E+000        3.959526140E+006
       -7.766237042E+008        0.000000000E+000        8.096191577E+006
       -5.608369729E-003        0.000000000E+000        2.166067068E+007
       -1.241554030E+008        0.000000000E+000        2.289052559E+007
       -2.483108060E+008        0.000000000E+000        2.412038049E+007
       -2.593029881E-003        0.000000000E+000       -8.559362350E+006
       -1.490405667E+008        0.000000000E+000       -8.046737209E+006
       -2.980811333E+008        0.000000000E+000       -7.534112068E+006
        4.223099657E-004        0.000000000E+000       -3.877939538E+007
       -1.739257303E+008        0.000000000E+000       -3.898400000E+007
       -3.478514607E+008        0.000000000E+000       -3.918860463E+007
 SCALARS Sigma_XX double 1
 LOOKUP_TABLE default
       -5.818042482E+009
       -2.909021241E+009
       -3.211651637E-002
       -4.947437139E+008
        2.285013251E+008
        9.517463640E+008
       -1.372581502E+009
       -5.354204294E+008
        3.017406430E+008
       -5.932273716E+009
       -2.966136858E+009
        2.010317899E-003
       -3.731397941E+008
        2.512602829E+008
        8.756603600E+008
       -4.562204620E+008
       -8.295533384E+007
        2.903097943E+008
       -4.752242431E+009
       -2.376121216E+009
        3.832855249E-002
       -5.777430152E+008
        1.636326028E+008
        9.050082208E+008
       -1.616470465E+009
       -6.283290160E+008
        3.598124325E+008
       -3.211651637E-002
        2.909021241E+009
        5.818042482E+009
       -9.517463640E+008
       -2.285013251E+008
        4.947437139E+008
       -3.017406430E+008
        5.354204294E+008
        1.372581502E+009
        2.010317899E-003
        2.966136858E+009
        5.932273716E+009
       -8.756603600E+008
       -2.512602829E+008
        3.731397941E+008
       -2.903097943E+008
        8.295533383E+007
        4.562204620E+008
        3.832855249E-002
        2.376121216E+009
        4.752242431E+009
       -9.050082209E+008
       -1.636326029E+008
        5.777430152E+008
       -3.598124325E+008
        6.283290160E+008
        1.616470465E+009
        1.359305056E+008
        2.188355743E+008
        3.017406430E+008
       -1.472981197E+008
        5.119740532E+007
        2.496929304E+008
       -8.973419776E+008
       -3.737792360E+008
        1.497835057E+008
       -6.485575237E+008
       -1.791238647E+008
        2.903097943E+008
       -1.527584616E+008
        6.541987540E+007
        2.835982124E+008
       -6.720244146E+007
       -9.975398337E+007
       -1.323055253E+008
        7.482793315E+008
        5.540458820E+008
        3.598124325E+008
       -2.439123224E+008
       -7.392946760E+006
        2.291264289E+008
       -7.116677630E+008
       -2.528214364E+008
        2.060248902E+008
       -3.017406430E+008
       -2.188355743E+008
       -1.359305056E+008
       -2.496929303E+008
       -5.119740531E+007
        1.472981197E+008
       -1.497835057E+008
        3.737792360E+008
        8.973419776E+008
       -2.903097943E+008
        1.791238647E+008
        6.485575237E+008
       -2.835982124E+008
       -6.541987539E+007
        1.527584617E+008
        1.323055252E+008
        9.975398334E+007
        6.720244143E+007
       -3.598124325E+008
       -5.540458820E+008
       -7.482793314E+008
       -2.291264289E+008
        7.392946754E+006
        2.439123224E+008
       -2.060248903E+008
        2.528214364E+008
        7.116677630E+008
 SCALARS Sigma_YY double 1
 LOOKUP_TABLE default
       -1.357543246E+010
       -6.787716229E+009
       -7.493853819E-002
       -9.258576988E+009
       -4.153415312E+009
        9.517463640E+008
       -8.514638375E+009
       -4.106448866E+009
        3.017406430E+008
       -1.384197200E+010
       -6.920986002E+009
        4.690741763E-003
       -8.627003889E+009
       -3.875671765E+009
        8.756603600E+008
       -6.664991128E+009
       -3.187340667E+009
        2.903097943E+008
       -1.108856567E+010
       -5.544282836E+009
        8.943328914E-002
       -8.897159272E+009
       -3.996075526E+009
        9.050082209E+008
       -9.768680962E+009
       -4.704434265E+009
        3.598124325E+008
       -7.493853819E-002
        6.787716229E+009
        1.357543246E+010
       -9.517463641E+008
        4.153415312E+009
        9.258576988E+009
       -3.017406430E+008
        4.106448866E+009
        8.514638375E+009
        4.690741763E-003
        6.920986002E+009
        1.384197200E+010
       -8.756603599E+008
        3.875671765E+009
        8.627003889E+009
       -2.903097943E+008
        3.187340667E+009
        6.664991128E+009
        8.943328914E-002
        5.544282837E+009
        1.108856567E+010
       -9.050082208E+008
        3.996075526E+009
        8.897159272E+009
       -3.598124325E+008
        4.704434265E+009
        9.768680962E+009
       -4.994777025E+009
       -2.346518191E+009
        3.017406430E+008
       -3.103136091E+009
       -1.426721580E+009
        2.496929304E+008
       -1.438908378E+009
       -6.445624360E+008
        1.497835057E+008
       -7.113777605E+009
       -3.411733906E+009
        2.903097943E+008
       -3.054963065E+009
       -1.385682426E+009
        2.835982124E+008
        5.942089402E+008
        2.309517075E+008
       -1.323055253E+008
       -4.250931438E+009
       -1.945559503E+009
        3.598124325E+008
       -3.088905495E+009
       -1.429889533E+009
        2.291264289E+008
       -1.640644338E+009
       -7.173097241E+008
        2.060248902E+008
       -3.017406430E+008
        2.346518191E+009
        4.994777025E+009
       -2.496929303E+008
        1.426721580E+009
        3.103136091E+009
       -1.497835056E+008
        6.445624360E+008
        1.438908378E+009
       -2.903097943E+008
        3.411733906E+009
        7.113777605E+009
       -2.835982124E+008
        1.385682426E+009
        3.054963065E+009
        1.323055253E+008
       -2.309517075E+008
       -5.942089403E+008
       -3.598124325E+008
        1.945559503E+009
        4.250931438E+009
       -2.291264289E+008
        1.429889533E+009
        3.088905495E+009
       -2.060248903E+008
        7.173097240E+008
        1.640644338E+009
 SCALARS Sigma_ZZ double 1
 LOOKUP_TABLE default
       -5.818042482E+009
       -2.909021241E+009
       -3.211651637E-002
       -1.276302513E+009
        4.722195016E+008
        2.220741516E+009
       -2.443148849E+009
       -8.695436742E+008
        7.040615003E+008
       -5.932273716E+009
       -2.966136858E+009
        2.010317899E-003
       -1.182231814E+009
        4.304878461E+008
        2.043207507E+009
       -1.633159834E+009
       -4.778851568E+008
        6.773895200E+008
       -4.752242431E+009
       -2.376121216E+009
        3.832855249E-002
       -1.273789770E+009
        4.189480393E+008
        2.111685849E+009
       -2.791870545E+009
       -9.761541013E+008
        8.395623425E+008
       -3.211651637E-002
        2.909021241E+009
        5.818042482E+009
       -2.220741516E+009
       -4.722195016E+008
        1.276302513E+009
       -7.040615003E+008
        8.695436742E+008
        2.443148849E+009
        2.010317899E-003
        2.966136858E+009
        5.932273716E+009
       -2.043207507E+009
       -4.304878461E+008
        1.182231814E+009
       -6.773895200E+008
        4.778851568E+008
        1.633159834E+009
        3.832855249E-002
        2.376121216E+009
        4.752242431E+009
       -2.111685849E+009
       -4.189480393E+008
        1.273789770E+009
       -8.395623425E+008
        9.761541013E+008
        2.791870545E+009
       -9.346368412E+008
       -1.152876705E+008
        7.040615003E+008
       -5.423291839E+008
        2.014382681E+007
        5.826168375E+008
       -4.412503635E+008
       -4.587775848E+007
        3.494948465E+008
       -1.825496895E+009
       -5.740536877E+008
        6.773895200E+008
       -4.707462230E+008
        9.549146966E+007
        6.617291624E+008
       -7.122762750E+007
       -1.899702599E+008
       -3.087128923E+008
       -4.271207490E+008
        2.062207968E+008
        8.395623425E+008
       -6.026928685E+008
       -3.403226718E+007
        5.346283342E+008
       -3.485838206E+008
        6.607046167E+007
        4.807247439E+008
       -7.040615003E+008
        1.152876705E+008
        9.346368412E+008
       -5.826168375E+008
       -2.014382682E+007
        5.423291839E+008
       -3.494948465E+008
        4.587775845E+007
        4.412503634E+008
       -6.773895200E+008
        5.740536876E+008
        1.825496895E+009
       -6.617291624E+008
       -9.549146966E+007
        4.707462230E+008
        3.087128923E+008
        1.899702599E+008
        7.122762745E+007
       -8.395623425E+008
       -2.062207967E+008
        4.271207490E+008
       -5.346283342E+008
        3.403226718E+007
        6.026928685E+008
       -4.807247440E+008
       -6.607046166E+007
        3.485838206E+008
 SCALARS Sigma_XZ double 1
 LOOKUP_TABLE default
       -4.558853295E-005
       -7.339948628E-005
       -9.598066532E-005
        2.217770100E+007
        2.046032851E+007
        1.874295602E+007
       -1.233804701E+007
       -1.303001491E+007
       -1.372198281E+007
       -3.146388065E-005
        1.461170928E-007
        4.986245791E-006
       -3.007627164E+006
       -3.319214785E+006
       -3.630802406E+006
        6.443592119E+006
        6.830737382E+006
        7.217882646E+006
        7.033102733E-005
        1.055208938E-004
        1.128511013E-004
       -2.819295532E+007
       -2.709875808E+007
       -2.600456083E+007
        2.522523125E+007
        2.669148967E+007
        2.815774810E+007
       -7.248016623E-005
       -8.365203562E-005
       -6.141788467E-005
        1.874295602E+007
        2.046032851E+007
        2.217770100E+007
       -1.372198281E+007
       -1.303001491E+007
       -1.233804702E+007
        5.698566619E-006
       -1.022819649E-005
       -7.403266034E-006
       -3.630802406E+006
       -3.319214785E+006
       -3.007627164E+006
        7.217882646E+006
        6.830737382E+006
        6.443592119E+006
        1.126562785E-004
        8.267792167E-005
        7.247407802E-005
       -2.600456083E+007
       -2.709875808E+007
       -2.819295532E+007
        2.815774810E+007
        2.669148967E+007
        2.522523125E+007
       -1.233804702E+007
       -1.303001491E+007
       -1.372198281E+007
       -1.029732600E+006
        1.151826571E+004
        1.052769131E+006
        4.682926154E+007
        3.893194482E+007
        3.103462810E+007
        6.443592119E+006
        6.830737382E+006
        7.217882646E+006
       -3.950532725E+006
       -4.087642735E+006
       -4.224752745E+006
        2.240596916E+007
        2.278091172E+007
        2.315585429E+007
        2.522523125E+007
        2.669148968E+007
        2.815774810E+007
       -6.871332851E+006
       -8.186803735E+006
       -9.502274619E+006
       -2.017323229E+006
        6.629878620E+006
        1.527708047E+007
       -1.372198281E+007
       -1.303001491E+007
       -1.233804702E+007
        1.052769130E+006
        1.151826471E+004
       -1.029732600E+006
        3.103462810E+007
        3.893194482E+007
        4.682926154E+007
        7.217882646E+006
        6.830737382E+006
        6.443592118E+006
       -4.224752744E+006
       -4.087642735E+006
       -3.950532725E+006
        2.315585429E+007
        2.278091172E+007
        2.240596916E+007
        2.815774810E+007
        2.669148968E+007
        2.522523125E+007
       -9.502274618E+006
       -8.186803735E+006
       -6.871332851E+006
        1.527708047E+007
        6.629878620E+006
       -2.017323229E+006
 SCALARS Sigma_YZ double 1
 LOOKUP_TABLE default
        1.283819546E+008
        1.400661040E+008
        1.517502534E+008
       -1.948150353E+007
       -1.847570138E+007
       -1.746989924E+007
       -1.673449617E+008
       -1.770175068E+008
       -1.866900519E+008
       -1.332043309E+008
       -1.224965587E+008
       -1.117887866E+008
       -3.827646118E+007
       -3.730876187E+007
       -3.634106255E+007
        5.665140854E+007
        4.787903501E+007
        3.910666149E+007
        2.190527351E+008
        2.299201366E+008
        2.407875381E+008
        4.651137934E+007
        4.771075411E+007
        4.891012889E+007
       -1.260299765E+008
       -1.344986284E+008
       -1.429672804E+008
        1.517502534E+008
        1.400661040E+008
        1.283819546E+008
       -1.746989924E+007
       -1.847570138E+007
       -1.948150353E+007
       -1.866900519E+008
       -1.770175068E+008
       -1.673449617E+008
       -1.117887866E+008
       -1.224965587E+008
       -1.332043309E+008
       -3.634106255E+007
       -3.730876187E+007
       -3.827646118E+007
        3.910666149E+007
        4.787903501E+007
        5.665140854E+007
        2.407875381E+008
        2.299201366E+008
        2.190527351E+008
        4.891012889E+007
        4.771075411E+007
        4.651137934E+007
       -1.429672804E+008
       -1.344986284E+008
       -1.260299765E+008
       -4.220691373E+007
       -4.239435944E+007
       -4.258180515E+007
       -6.911770759E+007
       -6.962423138E+007
       -7.013075517E+007
       -9.602850144E+007
       -9.685410331E+007
       -9.767970519E+007
       -2.644327007E+007
       -2.512404010E+007
       -2.380481012E+007
       -9.173539247E+006
       -1.058225698E+007
       -1.199097471E+007
        8.096191578E+006
        3.959526140E+006
       -1.771392975E+005
        2.412038049E+007
        2.289052559E+007
        2.166067068E+007
       -7.534112068E+006
       -8.046737209E+006
       -8.559362350E+006
       -3.918860463E+007
       -3.898400000E+007
       -3.877939538E+007
       -4.258180515E+007
       -4.239435944E+007
       -4.220691373E+007
       -7.013075517E+007
       -6.962423138E+007
       -6.911770759E+007
       -9.767970519E+007
       -9.685410331E+007
       -9.602850144E+007
       -2.380481012E+007
       -2.512404010E+007
       -2.644327007E+007
       -1.199097471E+007
       -1.058225698E+007
       -9.173539247E+006
       -1.771392972E+005
        3.959526140E+006
        8.096191577E+006
        2.166067068E+007
        2.289052559E+007
        2.412038049E+007
       -8.559362350E+006
       -8.046737209E+006
       -7.534112068E+006
       -3.877939538E+007
       -3.898400000E+007
       -3.918860463E+007
 SCALARS Sigma_XY double 1
 LOOKUP_TABLE default
       -1.183060844E+009
       -5.915304218E+008
       -5.362441524E-003
        2.856200200E+008
        1.428100100E+008
       -4.826254427E-003
        1.754300884E+009
        8.771504418E+008
       -4.290067331E-003
        3.768245854E+008
        1.884122927E+008
       -4.566404594E-003
        6.726692988E+008
        3.363346494E+008
       -4.902457120E-003
        9.685140122E+008
        4.842570061E+008
       -5.238509647E-003
        1.936710014E+009
        9.683550072E+008
       -3.770367663E-003
        1.059718578E+009
        5.298592888E+008
       -4.978659813E-003
        1.827271408E+008
        9.136357042E+007
       -6.186951962E-003
       -5.362441524E-003
        5.915304218E+008
        1.183060844E+009
       -4.826254427E-003
       -1.428100100E+008
       -2.856200200E+008
       -4.290067331E-003
       -8.771504418E+008
       -1.754300884E+009
       -4.566404594E-003
       -1.884122927E+008
       -3.768245854E+008
       -4.902457120E-003
       -3.363346494E+008
       -6.726692988E+008
       -5.238509647E-003
       -4.842570061E+008
       -9.685140122E+008
       -3.770367663E-003
       -9.683550072E+008
       -1.936710014E+009
       -4.978659813E-003
       -5.298592888E+008
       -1.059718578E+009
       -6.186951962E-003
       -9.136357043E+007
       -1.827271409E+008
        1.119567036E+009
        5.597835179E+008
       -4.113021365E-003
        1.162481492E+009
        5.812407459E+008
       -9.688980139E-004
        1.205395948E+009
        6.026979739E+008
        2.175225337E-003
        6.839389209E+008
        3.419694604E+008
       -4.860695547E-003
        7.302813126E+008
        3.651406563E+008
       -1.780963948E-003
        7.766237042E+008
        3.883118521E+008
        1.298767651E-003
        2.483108059E+008
        1.241554030E+008
       -5.608369729E-003
        2.980811333E+008
        1.490405667E+008
       -2.593029881E-003
        3.478514607E+008
        1.739257303E+008
        4.223099657E-004
       -4.113021365E-003
       -5.597835179E+008
       -1.119567036E+009
       -9.688980139E-004
       -5.812407459E+008
       -1.162481492E+009
        2.175225337E-003
       -6.026979739E+008
       -1.205395948E+009
       -4.860695547E-003
       -3.419694605E+008
       -6.839389209E+008
       -1.780963948E-003
       -3.651406563E+008
       -7.302813126E+008
        1.298767651E-003
       -3.883118521E+008
       -7.766237042E+008
       -5.608369729E-003
       -1.241554030E+008
       -2.483108060E+008
       -2.593029881E-003
       -1.490405667E+008
       -2.980811333E+008
        4.223099657E-004
       -1.739257303E+008
       -3.478514607E+008
 SCALARS VonMises double 1
 LOOKUP_TABLE default
        8.026546200E+009
        4.019061467E+009
        2.628391489E+008
        8.415076193E+009
        4.515751180E+009
        1.269770918E+009
        7.336635633E+009
        3.751454713E+009
        5.167073418E+008
        7.939933721E+009
        3.973958423E+009
        1.936238581E+008
        7.966469806E+009
        4.259920479E+009
        1.169259555E+009
        5.954030879E+009
        3.045930931E+009
        3.931602733E+008
        7.179518199E+009
        3.606795270E+009
        4.170562499E+008
        8.202703829E+009
        4.391090976E+009
        1.210485940E+009
        7.642494337E+009
        3.924193355E+009
        5.420862314E+008
        2.628391489E+008
        4.019061466E+009
        8.026546200E+009
        1.269770918E+009
        4.515751180E+009
        8.415076192E+009
        5.167073418E+008
        3.751454712E+009
        7.336635633E+009
        1.936238581E+008
        3.973958423E+009
        7.939933721E+009
        1.169259555E+009
        4.259920479E+009
        7.966469806E+009
        3.931602733E+008
        3.045930931E+009
        5.954030879E+009
        4.170562499E+008
        3.606795271E+009
        7.179518199E+009
        1.210485940E+009
        4.391090976E+009
        8.202703829E+009
        5.420862314E+008
        3.924193355E+009
        7.642494338E+009
        5.073814961E+009
        2.604132852E+009
        4.097152439E+008
        3.434210891E+009
        1.779713234E+009
        3.543961362E+008
        2.267487409E+009
        1.179854616E+009
        2.672041139E+008
        6.081169671E+009
        3.111582571E+009
        3.894701715E+008
        3.033360166E+009
        1.597062405E+009
        3.787715820E+008
        1.500426400E+009
        7.754369693E+008
        1.809094637E+008
        4.548211738E+009
        2.355745496E+009
        4.836797561E+008
        2.732919767E+009
        1.432950258E+009
        3.063039044E+008
        1.303742793E+009
        7.490023801E+008
        2.840276425E+008
        4.097152438E+008
        2.604132852E+009
        5.073814961E+009
        3.543961362E+008
        1.779713234E+009
        3.434210891E+009
        2.672041140E+008
        1.179854616E+009
        2.267487409E+009
        3.894701715E+008
        3.111582571E+009
        6.081169671E+009
        3.787715820E+008
        1.597062405E+009
        3.033360166E+009
        1.809094636E+008
        7.754369693E+008
        1.500426400E+009
        4.836797561E+008
        2.355745496E+009
        4.548211738E+009
        3.063039044E+008
        1.432950258E+009
        2.732919767E+009
        2.840276425E+008
        7.490023801E+008
        1.303742793E+009
 SCALARS Epsilon_XX double 1
 LOOKUP_TABLE default
        1.207530170E-017
        6.037650848E-018
       -5.608801036E-028
        3.651671420E-002
        1.825835710E-002
        1.979501036E-013
        2.622951596E-002
        1.311475798E-002
       -6.217467389E-014
       -1.240056235E-018
       -6.200281174E-019
       -1.104405267E-029
        3.520042352E-002
        1.760021176E-002
       -3.060519867E-014
        2.785239488E-002
        1.392619744E-002
       -4.453531931E-014
       -4.147073310E-018
       -2.073536654E-018
        8.275150896E-028
        3.388413284E-002
        1.694206642E-002
       -2.591605009E-013
        2.947527380E-002
        1.473763690E-002
       -2.689596472E-014
       -5.608801036E-028
       -6.396792818E-018
       -1.279358564E-017
        1.979501036E-013
       -1.825835710E-002
       -3.651671420E-002
       -6.217467389E-014
       -1.311475798E-002
       -2.622951596E-002
       -1.104405267E-029
       -2.270048299E-019
       -4.540096597E-019
       -3.060519867E-014
       -1.760021176E-002
       -3.520042352E-002
       -4.453531931E-014
       -1.392619744E-002
       -2.785239488E-002
        8.275150896E-028
        9.147955834E-019
        1.829591166E-018
       -2.591605009E-013
       -1.694206642E-002
       -3.388413284E-002
       -2.689596472E-014
       -1.473763690E-002
       -2.947527380E-002
        2.622951596E-002
        1.311475798E-002
       -6.217467389E-014
        1.296358168E-002
        6.481790840E-003
        8.335515488E-014
       -4.565676100E-003
       -2.282838050E-003
        3.511716650E-014
        2.785239488E-002
        1.392619744E-002
       -4.453531931E-014
        1.239663458E-002
        6.198317292E-003
        1.048665278E-014
       -3.069819661E-003
       -1.534909831E-003
       -3.821008428E-014
        2.947527380E-002
        1.473763690E-002
       -2.689596472E-014
        1.182968749E-002
        5.914843745E-003
       -6.238184933E-014
       -1.573963223E-003
       -7.869816117E-004
       -1.115373351E-013
       -6.217467389E-014
       -1.311475798E-002
       -2.622951596E-002
        8.335515488E-014
       -6.481790840E-003
       -1.296358168E-002
        3.511716650E-014
        2.282838050E-003
        4.565676099E-003
       -4.453531931E-014
       -1.392619744E-002
       -2.785239488E-002
        1.048665278E-014
       -6.198317292E-003
       -1.239663458E-002
       -3.821008428E-014
        1.534909831E-003
        3.069819661E-003
       -2.689596472E-014
       -1.473763690E-002
       -2.947527380E-002
       -6.238184933E-014
       -5.914843745E-003
       -1.182968749E-002
       -1.115373351E-013
        7.869816118E-004
        1.573963224E-003
 SCALARS Epsilon_YY double 1
 LOOKUP_TABLE default
       -1.381453009E-001
       -6.907265047E-002
       -7.625839502E-013
       -1.195515496E-001
       -5.977577479E-002
       -4.745286927E-013
       -1.009577982E-001
       -5.047889911E-002
       -1.864734352E-013
       -1.408576407E-001
       -7.042882037E-002
        4.773357567E-014
       -1.117861974E-001
       -5.589309868E-002
        8.836631955E-014
       -8.271475396E-002
       -4.135737698E-002
        1.289990634E-013
       -1.128386331E-001
       -5.641931654E-002
        9.100843513E-013
       -1.142698553E-001
       -5.713492765E-002
        6.315595279E-013
       -1.157010775E-001
       -5.785053876E-002
        3.530347045E-013
       -7.625839502E-013
        6.907265047E-002
        1.381453009E-001
       -4.745286927E-013
        5.977577479E-002
        1.195515496E-001
       -1.864734352E-013
        5.047889911E-002
        1.009577982E-001
        4.773357567E-014
        7.042882037E-002
        1.408576407E-001
        8.836631955E-014
        5.589309868E-002
        1.117861974E-001
        1.289990634E-013
        4.135737698E-002
        8.271475396E-002
        9.100843513E-013
        5.641931654E-002
        1.128386331E-001
        6.315595279E-013
        5.713492765E-002
        1.142698553E-001
        3.530347045E-013
        5.785053876E-002
        1.157010775E-001
       -6.513924827E-002
       -3.256962414E-002
       -5.481430810E-015
       -3.967462876E-002
       -1.983731438E-002
        1.033597379E-013
       -1.421000925E-002
       -7.105004626E-003
        2.122009066E-013
       -8.728166137E-002
       -4.364083068E-002
        1.045646174E-013
       -3.928646109E-002
       -1.964323054E-002
        4.771744645E-014
        8.708739191E-003
        4.354369595E-003
       -9.129724486E-015
       -5.955176730E-002
       -2.977588365E-002
        2.374992317E-013
       -3.883457449E-002
       -1.941728725E-002
        1.685812985E-014
       -1.811738169E-002
       -9.058690845E-003
       -2.037829720E-013
       -5.481430810E-015
        3.256962414E-002
        6.513924827E-002
        1.033597379E-013
        1.983731438E-002
        3.967462876E-002
        2.122009066E-013
        7.105004626E-003
        1.421000925E-002
        1.045646174E-013
        4.364083068E-002
        8.728166137E-002
        4.771744645E-014
        1.964323054E-002
        3.928646109E-002
       -9.129724486E-015
       -4.354369595E-003
       -8.708739191E-003
        2.374992317E-013
        2.977588365E-002
        5.955176730E-002
        1.685812985E-014
        1.941728725E-002
        3.883457449E-002
       -2.037829720E-013
        9.058690844E-003
        1.811738169E-002
 SCALARS Epsilon_ZZ double 1
 LOOKUP_TABLE default
        0.000000000E+000
        0.000000000E+000
        0.000000000E+000
        2.259854380E-002
        2.259854380E-002
        2.259854380E-002
        7.164618007E-003
        7.164618007E-003
        7.164618007E-003
        0.000000000E+000
        0.000000000E+000
        0.000000000E+000
        2.079193549E-002
        2.079193549E-002
        2.079193549E-002
        6.893200595E-003
        6.893200595E-003
        6.893200595E-003
        0.000000000E+000
        0.000000000E+000
        0.000000000E+000
        2.148877967E-002
        2.148877967E-002
        2.148877967E-002
        8.543491548E-003
        8.543491548E-003
        8.543491548E-003
        0.000000000E+000
        0.000000000E+000
        0.000000000E+000
       -2.259854380E-002
       -2.259854380E-002
       -2.259854380E-002
       -7.164618007E-003
       -7.164618007E-003
       -7.164618007E-003
        0.000000000E+000
        0.000000000E+000
        0.000000000E+000
       -2.079193549E-002
       -2.079193549E-002
       -2.079193549E-002
       -6.893200595E-003
       -6.893200595E-003
       -6.893200595E-003
        0.000000000E+000
        0.000000000E+000
        0.000000000E+000
       -2.148877967E-002
       -2.148877967E-002
       -2.148877967E-002
       -8.543491548E-003
       -8.543491548E-003
       -8.543491548E-003
        7.164618007E-003
        7.164618007E-003
        7.164618007E-003
        5.928781908E-003
        5.928781908E-003
        5.928781908E-003
        3.556503330E-003
        3.556503330E-003
        3.556503330E-003
        6.893200595E-003
        6.893200595E-003
        6.893200595E-003
        6.733838834E-003
        6.733838834E-003
        6.733838834E-003
       -3.141501057E-003
       -3.141501057E-003
       -3.141501057E-003
        8.543491548E-003
        8.543491548E-003
        8.543491548E-003
        5.440444888E-003
        5.440444888E-003
        5.440444888E-003
        4.891915203E-003
        4.891915203E-003
        4.891915203E-003
       -7.164618007E-003
       -7.164618007E-003
       -7.164618007E-003
       -5.928781908E-003
       -5.928781908E-003
       -5.928781908E-003
       -3.556503331E-003
       -3.556503331E-003
       -3.556503331E-003
       -6.893200595E-003
       -6.893200595E-003
       -6.893200595E-003
       -6.733838834E-003
       -6.733838834E-003
       -6.733838834E-003
        3.141501056E-003
        3.141501056E-003
        3.141501056E-003
       -8.543491548E-003
       -8.543491548E-003
       -8.543491548E-003
       -5.440444888E-003
       -5.440444888E-003
       -5.440444888E-003
       -4.891915203E-003
       -4.891915203E-003
       -4.891915203E-003
 SCALARS Epsilon_XZ double 1
 LOOKUP_TABLE default
       -1.623701174E-015
       -2.614228278E-015
       -3.418489450E-015
        7.898907204E-004
        7.287240291E-004
        6.675573377E-004
       -4.394372909E-004
       -4.640827228E-004
       -4.887281547E-004
       -1.120631365E-015
        5.204170428E-018
        1.775923159E-016
       -1.071209675E-004
       -1.182186088E-004
       -1.293162501E-004
        2.294978015E-004
        2.432865369E-004
        2.570752723E-004
        2.504940699E-015
        3.758278411E-015
        4.019354294E-015
       -1.004132655E-003
       -9.651612466E-004
       -9.261898379E-004
        8.984328939E-004
        9.506557966E-004
        1.002878699E-003
       -2.581485373E-015
       -2.979387570E-015
       -2.187486303E-015
        6.675573377E-004
        7.287240291E-004
        7.898907204E-004
       -4.887281547E-004
       -4.640827229E-004
       -4.394372910E-004
        2.029626467E-016
       -3.642919300E-016
       -2.636779683E-016
       -1.293162501E-004
       -1.182186088E-004
       -1.071209675E-004
        2.570752723E-004
        2.432865369E-004
        2.294978015E-004
        4.012415400E-015
        2.944693100E-015
        2.581268532E-015
       -9.261898379E-004
       -9.651612466E-004
       -1.004132655E-003
        1.002878699E-003
        9.506557966E-004
        8.984328939E-004
       -4.394372910E-004
       -4.640827229E-004
       -4.887281548E-004
       -3.667540766E-005
        4.102396005E-007
        3.749588684E-005
        1.667891507E-003
        1.386617213E-003
        1.105342919E-003
        2.294978015E-004
        2.432865369E-004
        2.570752723E-004
       -1.407039053E-004
       -1.455872755E-004
       -1.504706457E-004
        7.980208193E-004
        8.113749380E-004
        8.247290567E-004
        8.984328940E-004
        9.506557967E-004
        1.002878699E-003
       -2.447324029E-004
       -2.915847906E-004
       -3.384371782E-004
       -7.184986845E-005
        2.361326632E-004
        5.441151948E-004
       -4.887281548E-004
       -4.640827229E-004
       -4.394372910E-004
        3.749588682E-005
        4.102395650E-007
       -3.667540769E-005
        1.105342919E-003
        1.386617213E-003
        1.667891507E-003
        2.570752723E-004
        2.432865369E-004
        2.294978015E-004
       -1.504706457E-004
       -1.455872755E-004
       -1.407039053E-004
        8.247290567E-004
        8.113749380E-004
        7.980208193E-004
        1.002878699E-003
        9.506557967E-004
        8.984328940E-004
       -3.384371782E-004
       -2.915847906E-004
       -2.447324029E-004
        5.441151948E-004
        2.361326632E-004
       -7.184986844E-005
 SCALARS Epsilon_YZ double 1
 LOOKUP_TABLE default
        4.572507973E-003
        4.988655759E-003
        5.404803545E-003
       -6.938617694E-004
       -6.580386794E-004
       -6.222155893E-004
       -5.960231512E-003
       -6.304733118E-003
       -6.649234724E-003
       -4.744263840E-003
       -4.362891133E-003
       -3.981518427E-003
       -1.363271220E-003
       -1.328805217E-003
       -1.294339214E-003
        2.017721400E-003
        1.705280699E-003
        1.392839998E-003
        7.801878238E-003
        8.188936373E-003
        8.575994509E-003
        1.656569675E-003
        1.699287133E-003
        1.742004591E-003
       -4.488738887E-003
       -4.790362108E-003
       -5.091985328E-003
        5.404803545E-003
        4.988655759E-003
        4.572507973E-003
       -6.222155893E-004
       -6.580386794E-004
       -6.938617694E-004
       -6.649234724E-003
       -6.304733118E-003
       -5.960231512E-003
       -3.981518427E-003
       -4.362891133E-003
       -4.744263840E-003
       -1.294339214E-003
       -1.328805217E-003
       -1.363271220E-003
        1.392839998E-003
        1.705280699E-003
        2.017721400E-003
        8.575994509E-003
        8.188936373E-003
        7.801878238E-003
        1.742004591E-003
        1.699287133E-003
        1.656569675E-003
       -5.091985328E-003
       -4.790362108E-003
       -4.488738887E-003
       -1.503259941E-003
       -1.509936090E-003
       -1.516612238E-003
       -2.461726572E-003
       -2.479767145E-003
       -2.497807718E-003
       -3.420193202E-003
       -3.449598200E-003
       -3.479003198E-003
       -9.418150984E-004
       -8.948288254E-004
       -8.478425523E-004
       -3.267287951E-004
       -3.769023033E-004
       -4.270758116E-004
        2.883575082E-004
        1.410242187E-004
       -6.309070869E-006
        8.590820449E-004
        8.152789935E-004
        7.714759420E-004
       -2.683382381E-004
       -2.865961198E-004
       -3.048540015E-004
       -1.395758521E-003
       -1.388471233E-003
       -1.381183945E-003
       -1.516612238E-003
       -1.509936090E-003
       -1.503259941E-003
       -2.497807718E-003
       -2.479767145E-003
       -2.461726572E-003
       -3.479003198E-003
       -3.449598200E-003
       -3.420193202E-003
       -8.478425523E-004
       -8.948288254E-004
       -9.418150984E-004
       -4.270758116E-004
       -3.769023033E-004
       -3.267287951E-004
       -6.309070860E-006
        1.410242187E-004
        2.883575082E-004
        7.714759420E-004
        8.152789935E-004
        8.590820450E-004
       -3.048540015E-004
       -2.865961198E-004
       -2.683382380E-004
       -1.381183945E-003
       -1.388471233E-003
       -1.395758521E-003
 SCALARS Epsilon_XY double 1
 LOOKUP_TABLE default
       -4.213641361E-002
       -2.106820680E-002
       -1.909910680E-013
        1.017276784E-002
        5.086383918E-003
       -1.718939933E-013
        6.248194928E-002
        3.124097464E-002
       -1.527969186E-013
        1.342114962E-002
        6.710574808E-003
       -1.626390677E-013
        2.395808461E-002
        1.197904231E-002
       -1.746080618E-013
        3.449501961E-002
        1.724750981E-002
       -1.865770559E-013
        6.897871284E-002
        3.448935642E-002
       -1.342870675E-013
        3.774340139E-002
        1.887170070E-002
       -1.773221303E-013
        6.508089948E-003
        3.254044974E-003
       -2.203571932E-013
       -1.909910680E-013
        2.106820680E-002
        4.213641361E-002
       -1.718939933E-013
       -5.086383918E-003
       -1.017276784E-002
       -1.527969186E-013
       -3.124097464E-002
       -6.248194928E-002
       -1.626390677E-013
       -6.710574808E-003
       -1.342114962E-002
       -1.746080618E-013
       -1.197904231E-002
       -2.395808461E-002
       -1.865770559E-013
       -1.724750981E-002
       -3.449501961E-002
       -1.342870675E-013
       -3.448935642E-002
       -6.897871284E-002
       -1.773221303E-013
       -1.887170070E-002
       -3.774340139E-002
       -2.203571932E-013
       -3.254044974E-003
       -6.508089948E-003
        3.987499032E-002
        1.993749516E-002
       -1.464911719E-013
        4.140345039E-002
        2.070172520E-002
       -3.450869638E-014
        4.293191047E-002
        2.146595523E-002
        7.747377914E-014
        2.435946842E-002
        1.217973421E-002
       -1.731206633E-013
        2.601001935E-002
        1.300500968E-002
       -6.343159266E-014
        2.766057029E-002
        1.383028514E-002
        4.625747800E-014
        8.843946513E-003
        4.421973256E-003
       -1.997501547E-013
        1.061658831E-002
        5.308294155E-003
       -9.235448893E-014
        1.238923011E-002
        6.194615053E-003
        1.504117686E-014
       -1.464911719E-013
       -1.993749516E-002
       -3.987499032E-002
       -3.450869638E-014
       -2.070172520E-002
       -4.140345039E-002
        7.747377914E-014
       -2.146595523E-002
       -4.293191047E-002
       -1.731206633E-013
       -1.217973421E-002
       -2.435946842E-002
       -6.343159266E-014
       -1.300500968E-002
       -2.601001935E-002
        4.625747800E-014
       -1.383028514E-002
       -2.766057029E-002
       -1.997501547E-013
       -4.421973257E-003
       -8.843946513E-003
       -9.235448893E-014
       -5.308294155E-003
       -1.061658831E-002
        1.504117686E-014
       -6.194615053E-003
       -1.238923011E-002
 SCALARS TEMPERATURE_[C] double 1
 LOOKUP_TABLE default
        0.000000000E+000
        0.000000000E+000
        0.000000000E+000
        0.000000000E+000
        0.000000000E+000
        0.000000000E+000
        0.000000000E+000
        0.000000000E+000
        0.000000000E+000
        0.000000000E+000
        0.000000000E+000
        0.000000000E+000
        0.000000000E+000
        0.000000000E+000
        0.000000000E+000
        0.000000000E+000
        0.000000000E+000
        0.000000000E+000
        0.000000000E+000
        0.000000000E+000
        0.000000000E+000
        0.000000000E+000
        0.000000000E+000
        0.000000000E+000
        0.000000000E+000
        0.000000000E+000
        0.000000000E+000
        0.000000000E+000
        0.000000000E+000
        0.000000000E+000
        0.000000000E+000
        0.000000000E+000
        0.000000000E+000
        0.000000000E+000
        0.000000000E+000
        0.000000000E+000
        0.000000000E+000
        0.000000000E+000
        0.000000000E+000
        0.000000000E+000
        0.000000000E+000
        0.000000000E+000
        0.000000000E+000
        0.000000000E+000
        0.000000000E+000
        0.000000000E+000
        0.000000000E+000
        0.000000000E+000
        0.000000000E+000
        0.000000000E+000
        0.000000000E+000
        0.000000000E+000
        0.000000000E+000
        0.000000000E+000
        0.000000000E+000
        0.000000000E+000
        0.000000000E+000
        0.000000000E+000
        0.000000000E+000
        0.000000000E+000
        0.000000000E+000
        0.000000000E+000
        0.000000000E+000
        0.000000000E+000
        0.000000000E+000
        0.000000000E+000
        0.000000000E+000
        0.000000000E+000
        0.000000000E+000
        0.000000000E+000
        0.000000000E+000
        0.000000000E+000
        0.000000000E+000
        0.000000000E+000
        0.000000000E+000
        0.000000000E+000
        0.000000000E+000
        0.000000000E+000
        0.000000000E+000
        0.000000000E+000
        0.000000000E+000
        0.000000000E+000
        0.000000000E+000
        0.000000000E+000
        0.000000000E+000
        0.000000000E+000
        0.000000000E+000
        0.000000000E+000
        0.000000000E+000
        0.000000000E+000
        0.000000000E+000
        0.000000000E+000
        0.000000000E+000
        0.000000000E+000
        0.000000000E+000
        0.000000000E+000
        0.000000000E+000
        0.000000000E+000
        0.000000000E+000
        0.000000000E+000
        0.000000000E+000
        0.000000000E+000
        0.000000000E+000
        0.000000000E+000
        0.000000000E+000
        0.000000000E+000
        0.000000000E+000
        0.000000000E+000
 SCALARS VOLTAGE[V] double 1
 LOOKUP_TABLE default
        0.000000000E+000
        0.000000000E+000
        0.000000000E+000
        0.000000000E+000
        0.000000000E+000
        0.000000000E+000
        0.000000000E+000
        0.000000000E+000
        0.000000000E+000
        0.000000000E+000
        0.000000000E+000
        0.000000000E+000
        0.000000000E+000
        0.000000000E+000
        0.000000000E+000
        0.000000000E+000
        0.000000000E+000
        0.000000000E+000
        0.000000000E+000
        0.000000000E+000
        0.000000000E+000
        0.000000000E+000
        0.000000000E+000
        0.000000000E+000
        0.000000000E+000
        0.000000000E+000
        0.000000000E+000
        0.000000000E+000
        0.000000000E+000
        0.000000000E+000
        0.000000000E+000
        0.000000000E+000
        0.000000000E+000
        0.000000000E+000
        0.000000000E+000
        0.000000000E+000
        0.000000000E+000
        0.000000000E+000
        0.000000000E+000
        0.000000000E+000
        0.000000000E+000
        0.000000000E+000
        0.000000000E+000
        0.000000000E+000
        0.000000000E+000
        0.000000000E+000
        0.000000000E+000
        0.000000000E+000
        0.000000000E+000
        0.000000000E+000
        0.000000000E+000
        0.000000000E+000
        0.000000000E+000
        0.000000000E+000
        0.000000000E+000
        0.000000000E+000
        0.000000000E+000
        0.000000000E+000
        0.000000000E+000
        0.000000000E+000
        0.000000000E+000
        0.000000000E+000
        0.000000000E+000
        0.000000000E+000
        0.000000000E+000
        0.000000000E+000
        0.000000000E+000
        0.000000000E+000
        0.000000000E+000
        0.000000000E+000
        0.000000000E+000
        0.000000000E+000
        0.000000000E+000
        0.000000000E+000
        0.000000000E+000
        0.000000000E+000
        0.000000000E+000
        0.000000000E+000
        0.000000000E+000
        0.000000000E+000
        0.000000000E+000
        0.000000000E+000
        0.000000000E+000
        0.000000000E+000
        0.000000000E+000
        0.000000000E+000
        0.000000000E+000
        0.000000000E+000
        0.000000000E+000
        0.000000000E+000
        0.000000000E+000
        0.000000000E+000
        0.000000000E+000
        0.000000000E+000
        0.000000000E+000
        0.000000000E+000
        0.000000000E+000
        0.000000000E+000
        0.000000000E+000
        0.000000000E+000
        0.000000000E+000
        0.000000000E+000
        0.000000000E+000
        0.000000000E+000
        0.000000000E+000
        0.000000000E+000
        0.000000000E+000
        0.000000000E+000
 SCALARS EX double 1
 LOOKUP_TABLE default
        0.000000000E+000
        0.000000000E+000
        0.000000000E+000
        0.000000000E+000
        0.000000000E+000
        0.000000000E+000
        0.000000000E+000
        0.000000000E+000
        0.000000000E+000
        0.000000000E+000
        0.000000000E+000
        0.000000000E+000
        0.000000000E+000
        0.000000000E+000
        0.000000000E+000
        0.000000000E+000
        0.000000000E+000
        0.000000000E+000
        0.000000000E+000
        0.000000000E+000
        0.000000000E+000
        0.000000000E+000
        0.000000000E+000
        0.000000000E+000
        0.000000000E+000
        0.000000000E+000
        0.000000000E+000
        0.000000000E+000
        0.000000000E+000
        0.000000000E+000
        0.000000000E+000
        0.000000000E+000
        0.000000000E+000
        0.000000000E+000
        0.000000000E+000
        0.000000000E+000
        0.000000000E+000
        0.000000000E+000
        0.000000000E+000
        0.000000000E+000
        0.000000000E+000
        0.000000000E+000
        0.000000000E+000
        0.000000000E+000
        0.000000000E+000
        0.000000000E+000
        0.000000000E+000
        0.000000000E+000
        0.000000000E+000
        0.000000000E+000
        0.000000000E+000
        0.000000000E+000
        0.000000000E+000
        0.000000000E+000
        0.000000000E+000
        0.000000000E+000
        0.000000000E+000
        0.000000000E+000
        0.000000000E+000
        0.000000000E+000
        0.000000000E+000
        0.000000000E+000
        0.000000000E+000
        0.000000000E+000
        0.000000000E+000
        0.000000000E+000
        0.000000000E+000
        0.000000000E+000
        0.000000000E+000
        0.000000000E+000
        0.000000000E+000
        0.000000000E+000
        0.000000000E+000
        0.000000000E+000
        0.000000000E+000
        0.000000000E+000
        0.000000000E+000
        0.000000000E+000
        0.000000000E+000
        0.000000000E+000
        0.000000000E+000
        0.000000000E+000
        0.000000000E+000
        0.000000000E+000
        0.000000000E+000
        0.000000000E+000
        0.000000000E+000
        0.000000000E+000
        0.000000000E+000
        0.000000000E+000
        0.000000000E+000
        0.000000000E+000
        0.000000000E+000
        0.000000000E+000
        0.000000000E+000
        0.000000000E+000
        0.000000000E+000
        0.000000000E+000
        0.000000000E+000
        0.000000000E+000
        0.000000000E+000
        0.000000000E+000
        0.000000000E+000
        0.000000000E+000
        0.000000000E+000
        0.000000000E+000
        0.000000000E+000
        0.000000000E+000
 SCALARS EY double 1
 LOOKUP_TABLE default
        0.000000000E+000
        0.000000000E+000
        0.000000000E+000
        0.000000000E+000
        0.000000000E+000
        0.000000000E+000
        0.000000000E+000
        0.000000000E+000
        0.000000000E+000
        0.000000000E+000
        0.000000000E+000
        0.000000000E+000
        0.000000000E+000
        0.000000000E+000
        0.000000000E+000
        0.000000000E+000
        0.000000000E+000
        0.000000000E+000
        0.000000000E+000
        0.000000000E+000
        0.000000000E+000
        0.000000000E+000
        0.000000000E+000
        0.000000000E+000
        0.000000000E+000
        0.000000000E+000
        0.000000000E+000
        0.000000000E+000
        0.000000000E+000
        0.000000000E+000
        0.000000000E+000
        0.000000000E+000
        0.000000000E+000
        0.000000000E+000
        0.000000000E+000
        0.000000000E+000
        0.000000000E+000
        0.000000000E+000
        0.000000000E+000
        0.000000000E+000
        0.000000000E+000
        0.000000000E+000
        0.000000000E+000
        0.000000000E+000
        0.000000000E+000
        0.000000000E+000
        0.000000000E+000
        0.000000000E+000
        0.000000000E+000
        0.000000000E+000
        0.000000000E+000
        0.000000000E+000
        0.000000000E+000
        0.000000000E+000
        0.000000000E+000
        0.000000000E+000
        0.000000000E+000
        0.000000000E+000
        0.000000000E+000
        0.000000000E+000
        0.000000000E+000
        0.000000000E+000
        0.000000000E+000
        0.000000000E+000
        0.000000000E+000
        0.000000000E+000
        0.000000000E+000
        0.000000000E+000
        0.000000000E+000
        0.000000000E+000
        0.000000000E+000
        0.000000000E+000
        0.000000000E+000
        0.000000000E+000
        0.000000000E+000
        0.000000000E+000
        0.000000000E+000
        0.000000000E+000
        0.000000000E+000
        0.000000000E+000
        0.000000000E+000
        0.000000000E+000
        0.000000000E+000
        0.000000000E+000
        0.000000000E+000
        0.000000000E+000
        0.000000000E+000
        0.000000000E+000
        0.000000000E+000
        0.000000000E+000
        0.000000000E+000
        0.000000000E+000
        0.000000000E+000
        0.000000000E+000
        0.000000000E+000
        0.000000000E+000
        0.000000000E+000
        0.000000000E+000
        0.000000000E+000
        0.000000000E+000
        0.000000000E+000
        0.000000000E+000
        0.000000000E+000
        0.000000000E+000
        0.000000000E+000
        0.000000000E+000
        0.000000000E+000
        0.000000000E+000
 SCALARS EZ double 1
 LOOKUP_TABLE default
        0.000000000E+000
        0.000000000E+000
        0.000000000E+000
        0.000000000E+000
        0.000000000E+000
        0.000000000E+000
        0.000000000E+000
        0.000000000E+000
        0.000000000E+000
        0.000000000E+000
        0.000000000E+000
        0.000000000E+000
        0.000000000E+000
        0.000000000E+000
        0.000000000E+000
        0.000000000E+000
        0.000000000E+000
        0.000000000E+000
        0.000000000E+000
        0.000000000E+000
        0.000000000E+000
        0.000000000E+000
        0.000000000E+000
        0.000000000E+000
        0.000000000E+000
        0.000000000E+000
        0.000000000E+000
        0.000000000E+000
        0.000000000E+000
        0.000000000E+000
        0.000000000E+000
        0.000000000E+000
        0.000000000E+000
        0.000000000E+000
        0.000000000E+000
        0.000000000E+000
        0.000000000E+000
        0.000000000E+000
        0.000000000E+000
        0.000000000E+000
        0.000000000E+000
        0.000000000E+000
        0.000000000E+000
        0.000000000E+000
        0.000000000E+000
        0.000000000E+000
        0.000000000E+000
        0.000000000E+000
        0.000000000E+000
        0.000000000E+000
        0.000000000E+000
        0.000000000E+000
        0.000000000E+000
        0.000000000E+000
        0.000000000E+000
        0.000000000E+000
        0.000000000E+000
        0.000000000E+000
        0.000000000E+000
        0.000000000E+000
        0.000000000E+000
        0.000000000E+000
        0.000000000E+000
        0.000000000E+000
        0.000000000E+000
        0.000000000E+000
        0.000000000E+000
        0.000000000E+000
        0.000000000E+000
        0.000000000E+000
        0.000000000E+000
        0.000000000E+000
        0.000000000E+000
        0.000000000E+000
        0.000000000E+000
        0.000000000E+000
        0.000000000E+000
        0.000000000E+000
        0.000000000E+000
        0.000000000E+000
        0.000000000E+000
        0.000000000E+000
        0.000000000E+000
        0.000000000E+000
        0.000000000E+000
        0.000000000E+000
        0.000000000E+000
        0.000000000E+000
        0.000000000E+000
        0.000000000E+000
        0.000000000E+000
        0.000000000E+000
        0.000000000E+000
        0.000000000E+000
        0.000000000E+000
        0.000000000E+000
        0.000000000E+000
        0.000000000E+000
        0.000000000E+000
        0.000000000E+000
        0.000000000E+000
        0.000000000E+000
        0.000000000E+000
        0.000000000E+000
        0.000000000E+000
        0.000000000E+000
        0.000000000E+000
        0.000000000E+000
 SCALARS Elem.Dimension double 1
 LOOKUP_TABLE default
        2.000000000E+000
        2.000000000E+000
        2.000000000E+000
        2.000000000E+000
        2.000000000E+000
        2.000000000E+000
        2.000000000E+000
        2.000000000E+000
        2.000000000E+000
        2.000000000E+000
        2.000000000E+000
        2.000000000E+000
        2.000000000E+000
        2.000000000E+000
        2.000000000E+000
        2.000000000E+000
        2.000000000E+000
        2.000000000E+000
        2.000000000E+000
        2.000000000E+000
        2.000000000E+000
        2.000000000E+000
        2.000000000E+000
        2.000000000E+000
        2.000000000E+000
        2.000000000E+000
        2.000000000E+000
        2.000000000E+000
        2.000000000E+000
        2.000000000E+000
        2.000000000E+000
        2.000000000E+000
        2.000000000E+000
        2.000000000E+000
        2.000000000E+000
        2.000000000E+000
        2.000000000E+000
        2.000000000E+000
        2.000000000E+000
        2.000000000E+000
        2.000000000E+000
        2.000000000E+000
        2.000000000E+000
        2.000000000E+000
        2.000000000E+000
        2.000000000E+000
        2.000000000E+000
        2.000000000E+000
        2.000000000E+000
        2.000000000E+000
        2.000000000E+000
        2.000000000E+000
        2.000000000E+000
        2.000000000E+000
        2.000000000E+000
        2.000000000E+000
        2.000000000E+000
        2.000000000E+000
        2.000000000E+000
        2.000000000E+000
        2.000000000E+000
        2.000000000E+000
        2.000000000E+000
        2.000000000E+000
        2.000000000E+000
        2.000000000E+000
        2.000000000E+000
        2.000000000E+000
        2.000000000E+000
        2.000000000E+000
        2.000000000E+000
        2.000000000E+000
        2.000000000E+000
        2.000000000E+000
        2.000000000E+000
        2.000000000E+000
        2.000000000E+000
        2.000000000E+000
        2.000000000E+000
        2.000000000E+000
        2.000000000E+000
        2.000000000E+000
        2.000000000E+000
        2.000000000E+000
        2.000000000E+000
        2.000000000E+000
        2.000000000E+000
        2.000000000E+000
        2.000000000E+000
        2.000000000E+000
        2.000000000E+000
        2.000000000E+000
        2.000000000E+000
        2.000000000E+000
        2.000000000E+000
        2.000000000E+000
        2.000000000E+000
        2.000000000E+000
        2.000000000E+000
        2.000000000E+000
        2.000000000E+000
        2.000000000E+000
        2.000000000E+000
        2.000000000E+000
        2.000000000E+000
        2.000000000E+000
        2.000000000E+000
        2.000000000E+000
 SCALARS ID_LAM double 1
 LOOKUP_TABLE default
        1.000000000E+000
        1.000000000E+000
        1.000000000E+000
        1.000000000E+000
        1.000000000E+000
        1.000000000E+000
        1.000000000E+000
        1.000000000E+000
        1.000000000E+000
        1.000000000E+000
        1.000000000E+000
        1.000000000E+000
        1.000000000E+000
        1.000000000E+000
        1.000000000E+000
        1.000000000E+000
        1.000000000E+000
        1.000000000E+000
        1.000000000E+000
        1.000000000E+000
        1.000000000E+000
        1.000000000E+000
        1.000000000E+000
        1.000000000E+000
        1.000000000E+000
        1.000000000E+000
        1.000000000E+000
        1.000000000E+000
        1.000000000E+000
        1.000000000E+000
        1.000000000E+000
        1.000000000E+000
        1.000000000E+000
        1.000000000E+000
        1.000000000E+000
        1.000000000E+000
        1.000000000E+000
        1.000000000E+000
        1.000000000E+000
        1.000000000E+000
        1.000000000E+000
        1.000000000E+000
        1.000000000E+000
        1.000000000E+000
        1.000000000E+000
        1.000000000E+000
        1.000000000E+000
        1.000000000E+000
        1.000000000E+000
        1.000000000E+000
        1.000000000E+000
        1.000000000E+000
        1.000000000E+000
        1.000000000E+000
        1.000000000E+000
        1.000000000E+000
        1.000000000E+000
        1.000000000E+000
        1.000000000E+000
        1.000000000E+000
        1.000000000E+000
        1.000000000E+000
        1.000000000E+000
        1.000000000E+000
        1.000000000E+000
        1.000000000E+000
        1.000000000E+000
        1.000000000E+000
        1.000000000E+000
        1.000000000E+000
        1.000000000E+000
        1.000000000E+000
        1.000000000E+000
        1.000000000E+000
        1.000000000E+000
        1.000000000E+000
        1.000000000E+000
        1.000000000E+000
        1.000000000E+000
        1.000000000E+000
        1.000000000E+000
        1.000000000E+000
        1.000000000E+000
        1.000000000E+000
        1.000000000E+000
        1.000000000E+000
        1.000000000E+000
        1.000000000E+000
        1.000000000E+000
        1.000000000E+000
        1.000000000E+000
        1.000000000E+000
        1.000000000E+000
        1.000000000E+000
        1.000000000E+000
        1.000000000E+000
        1.000000000E+000
        1.000000000E+000
        1.000000000E+000
        1.000000000E+000
        1.000000000E+000
        1.000000000E+000
        1.000000000E+000
        1.000000000E+000
        1.000000000E+000
        1.000000000E+000
        1.000000000E+000
        1.000000000E+000
 SCALARS ID_MAT double 1
 LOOKUP_TABLE default
        1.000000000E+000
        1.000000000E+000
        1.000000000E+000
        1.000000000E+000
        1.000000000E+000
        1.000000000E+000
        1.000000000E+000
        1.000000000E+000
        1.000000000E+000
        1.000000000E+000
        1.000000000E+000
        1.000000000E+000
        1.000000000E+000
        1.000000000E+000
        1.000000000E+000
        1.000000000E+000
        1.000000000E+000
        1.000000000E+000
        1.000000000E+000
        1.000000000E+000
        1.000000000E+000
        1.000000000E+000
        1.000000000E+000
        1.000000000E+000
        1.000000000E+000
        1.000000000E+000
        1.000000000E+000
        1.000000000E+000
        1.000000000E+000
        1.000000000E+000
        1.000000000E+000
        1.000000000E+000
        1.000000000E+000
        1.000000000E+000
        1.000000000E+000
        1.000000000E+000
        1.000000000E+000
        1.000000000E+000
        1.000000000E+000
        1.000000000E+000
        1.000000000E+000
        1.000000000E+000
        1.000000000E+000
        1.000000000E+000
        1.000000000E+000
        1.000000000E+000
        1.000000000E+000
        1.000000000E+000
        1.000000000E+000
        1.000000000E+000
        1.000000000E+000
        1.000000000E+000
        1.000000000E+000
        1.000000000E+000
        1.000000000E+000
        1.000000000E+000
        1.000000000E+000
        1.000000000E+000
        1.000000000E+000
        1.000000000E+000
        1.000000000E+000
        1.000000000E+000
        1.000000000E+000
        1.000000000E+000
        1.000000000E+000
        1.000000000E+000
        1.000000000E+000
        1.000000000E+000
        1.000000000E+000
        1.000000000E+000
        1.000000000E+000
        1.000000000E+000
        1.000000000E+000
        1.000000000E+000
        1.000000000E+000
        1.000000000E+000
        1.000000000E+000
        1.000000000E+000
        1.000000000E+000
        1.000000000E+000
        1.000000000E+000
        1.000000000E+000
        1.000000000E+000
        1.000000000E+000
        1.000000000E+000
        1.000000000E+000
        1.000000000E+000
        1.000000000E+000
        1.000000000E+000
        1.000000000E+000
        1.000000000E+000
        1.000000000E+000
        1.000000000E+000
        1.000000000E+000
        1.000000000E+000
        1.000000000E+000
        1.000000000E+000
        1.000000000E+000
        1.000000000E+000
        1.000000000E+000
        1.000000000E+000
        1.000000000E+000
        1.000000000E+000
        1.000000000E+000
        1.000000000E+000
        1.000000000E+000
        1.000000000E+000
        1.000000000E+000
 SCALARS DOF_SET double 1
 LOOKUP_TABLE default
        0.000000000E+000
        0.000000000E+000
        0.000000000E+000
        0.000000000E+000
        0.000000000E+000
        0.000000000E+000
        0.000000000E+000
        0.000000000E+000
        0.000000000E+000
        0.000000000E+000
        0.000000000E+000
        0.000000000E+000
        0.000000000E+000
        0.000000000E+000
        0.000000000E+000
        0.000000000E+000
        0.000000000E+000
        0.000000000E+000
        0.000000000E+000
        0.000000000E+000
        0.000000000E+000
        0.000000000E+000
        0.000000000E+000
        0.000000000E+000
        0.000000000E+000
        0.000000000E+000
        0.000000000E+000
        0.000000000E+000
        0.000000000E+000
        0.000000000E+000
        0.000000000E+000
        0.000000000E+000
        0.000000000E+000
        0.000000000E+000
        0.000000000E+000
        0.000000000E+000
        0.000000000E+000
        0.000000000E+000
        0.000000000E+000
        0.000000000E+000
        0.000000000E+000
        0.000000000E+000
        0.000000000E+000
        0.000000000E+000
        0.000000000E+000
        0.000000000E+000
        0.000000000E+000
        0.000000000E+000
        0.000000000E+000
        0.000000000E+000
        0.000000000E+000
        0.000000000E+000
        0.000000000E+000
        0.000000000E+000
        0.000000000E+000
        0.000000000E+000
        0.000000000E+000
        0.000000000E+000
        0.000000000E+000
        0.000000000E+000
        0.000000000E+000
        0.000000000E+000
        0.000000000E+000
        0.000000000E+000
        0.000000000E+000
        0.000000000E+000
        0.000000000E+000
        0.000000000E+000
        0.000000000E+000
        0.000000000E+000
        0.000000000E+000
        0.000000000E+000
        0.000000000E+000
        0.000000000E+000
        0.000000000E+000
        0.000000000E+000
        0.000000000E+000
        0.000000000E+000
        0.000000000E+000
        0.000000000E+000
        0.000000000E+000
        0.000000000E+000
        0.000000000E+000
        0.000000000E+000
        0.000000000E+000
        0.000000000E+000
        0.000000000E+000
        0.000000000E+000
        0.000000000E+000
        0.000000000E+000
        0.000000000E+000
        0.000000000E+000
        0.000000000E+000
        0.000000000E+000
        0.000000000E+000
        0.000000000E+000
        0.000000000E+000
        0.000000000E+000
        0.000000000E+000
        0.000000000E+000
        0.000000000E+000
        0.000000000E+000
        0.000000000E+000
        0.000000000E+000
        0.000000000E+000
        0.000000000E+000
        0.000000000E+000
        0.000000000E+000
 SCALARS HYGRO double 1
 LOOKUP_TABLE default
        0.000000000E+000
        0.000000000E+000
        0.000000000E+000
        0.000000000E+000
        0.000000000E+000
        0.000000000E+000
        0.000000000E+000
        0.000000000E+000
        0.000000000E+000
        0.000000000E+000
        0.000000000E+000
        0.000000000E+000
        0.000000000E+000
        0.000000000E+000
        0.000000000E+000
        0.000000000E+000
        0.000000000E+000
        0.000000000E+000
        0.000000000E+000
        0.000000000E+000
        0.000000000E+000
        0.000000000E+000
        0.000000000E+000
        0.000000000E+000
        0.000000000E+000
        0.000000000E+000
        0.000000000E+000
        0.000000000E+000
        0.000000000E+000
        0.000000000E+000
        0.000000000E+000
        0.000000000E+000
        0.000000000E+000
        0.000000000E+000
        0.000000000E+000
        0.000000000E+000
        0.000000000E+000
        0.000000000E+000
        0.000000000E+000
        0.000000000E+000
        0.000000000E+000
        0.000000000E+000
        0.000000000E+000
        0.000000000E+000
        0.000000000E+000
        0.000000000E+000
        0.000000000E+000
        0.000000000E+000
        0.000000000E+000
        0.000000000E+000
        0.000000000E+000
        0.000000000E+000
        0.000000000E+000
        0.000000000E+000
        0.000000000E+000
        0.000000000E+000
        0.000000000E+000
        0.000000000E+000
        0.000000000E+000
        0.000000000E+000
        0.000000000E+000
        0.000000000E+000
        0.000000000E+000
        0.000000000E+000
        0.000000000E+000
        0.000000000E+000
        0.000000000E+000
        0.000000000E+000
        0.000000000E+000
        0.000000000E+000
        0.000000000E+000
        0.000000000E+000
        0.000000000E+000
        0.000000000E+000
        0.000000000E+000
        0.000000000E+000
        0.000000000E+000
        0.000000000E+000
        0.000000000E+000
        0.000000000E+000
        0.000000000E+000
        0.000000000E+000
        0.000000000E+000
        0.000000000E+000
        0.000000000E+000
        0.000000000E+000
        0.000000000E+000
        0.000000000E+000
        0.000000000E+000
        0.000000000E+000
        0.000000000E+000
        0.000000000E+000
        0.000000000E+000
        0.000000000E+000
        0.000000000E+000
        0.000000000E+000
        0.000000000E+000
        0.000000000E+000
        0.000000000E+000
        0.000000000E+000
        0.000000000E+000
        0.000000000E+000
        0.000000000E+000
        0.000000000E+000
        0.000000000E+000
        0.000000000E+000
        0.000000000E+000
        0.000000000E+000
