<svg xmlns="http://www.w3.org/2000/svg" viewBox="0 0 740 300" width="740" height="300" style="max-width:100%;height:auto"><defs><marker id="arr" viewBox="0 0 10 10" refX="9" refY="5" markerWidth="7" markerHeight="7" orient="auto-start-reverse"><path d="M 0 0 L 10 5 L 0 10 z" fill="#333"/></marker></defs><polygon points="60.0,175.0 120.0,175.0 450.0,120.0 390.0,120.0" fill="#e7eef8" stroke="#1d4f91" stroke-width="1.2"/><polygon points="120.0,220.0 120.0,175.0 450.0,120.0 450.0,165.0" fill="#d4e1f3" stroke="#1d4f91" stroke-width="1.2"/><polygon points="60.0,220.0 120.0,220.0 120.0,175.0 60.0,175.0" fill="#f5f8fc" stroke="#1d4f91" stroke-width="1.6"/><polygon points="390.0,165.0 450.0,165.0 450.0,120.0 390.0,120.0" fill="#f5f8fc" stroke="#1d4f91" stroke-width="1.6"/><line x1="90.0" y1="198.0" x2="420.0" y2="143.0" stroke="#b9461b" stroke-width="2"/><circle cx="90.0" cy="198.0" r="4.5" fill="#b9461b" stroke="#fff" stroke-width="1"/><text x="98.0" y="190.0" font-size="10" text-anchor="start" fill="#222" font-weight="normal"></text><circle cx="200.0" cy="179.7" r="4.5" fill="#b9461b" stroke="#fff" stroke-width="1"/><text x="208.0" y="171.7" font-size="10" text-anchor="start" fill="#222" font-weight="normal"></text><circle cx="310.0" cy="161.3" r="4.5" fill="#b9461b" stroke="#fff" stroke-width="1"/><text x="318.0" y="153.3" font-size="10" text-anchor="start" fill="#222" font-weight="normal"></text><circle cx="420.0" cy="143.0" r="4.5" fill="#b9461b" stroke="#fff" stroke-width="1"/><text x="428.0" y="135.0" font-size="10" text-anchor="start" fill="#222" font-weight="normal"></text><text x="245.0" y="200.5" font-size="11" text-anchor="middle" fill="#b9461b" font-weight="normal">structural 1D mesh (B4)</text><text x="245.0" y="214.2" font-size="11" text-anchor="middle" fill="#b9461b" font-weight="normal">N_i(y)</text><text x="590.0" y="60.0" font-size="12" text-anchor="middle" fill="#1d4f91" font-weight="bold">Section expansion F_tau(x, z)</text><rect x="520.0" y="80.0" width="140.0" height="110.0" rx="0" fill="#f6f9fd" stroke="#1d4f91" stroke-width="1.6"/><circle cx="520.0" cy="80.0" r="4" fill="#1d4f91" stroke="#fff" stroke-width="1"/><text x="528.0" y="72.0" font-size="10" text-anchor="start" fill="#222" font-weight="normal"></text><circle cx="520.0" cy="135.0" r="4" fill="#1d4f91" stroke="#fff" stroke-width="1"/><text x="528.0" y="127.0" font-size="10" text-anchor="start" fill="#222" font-weight="normal"></text><circle cx="520.0" cy="190.0" r="4" fill="#1d4f91" stroke="#fff" stroke-width="1"/><text x="528.0" y="182.0" font-size="10" text-anchor="start" fill="#222" font-weight="normal"></text><circle cx="590.0" cy="80.0" r="4" fill="#1d4f91" stroke="#fff" stroke-width="1"/><text x="598.0" y="72.0" font-size="10" text-anchor="start" fill="#222" font-weight="normal"></text><circle cx="590.0" cy="135.0" r="4" fill="#1d4f91" stroke="#fff" stroke-width="1"/><text x="598.0" y="127.0" font-size="10" text-anchor="start" fill="#222" font-weight="normal"></text><circle cx="590.0" cy="190.0" r="4" fill="#1d4f91" stroke="#fff" stroke-width="1"/><text x="598.0" y="182.0" font-size="10" text-anchor="start" fill="#222" font-weight="normal"></text><circle cx="660.0" cy="80.0" r="4" fill="#1d4f91" stroke="#fff" stroke-width="1"/><text x="668.0" y="72.0" font-size="10" text-anchor="start" fill="#222" font-weight="normal"></text><circle cx="660.0" cy="135.0" r="4" fill="#1d4f91" stroke="#fff" stroke-width="1"/><text x="668.0" y="127.0" font-size="10" text-anchor="start" fill="#222" font-weight="normal"></text><circle cx="660.0" cy="190.0" r="4" fill="#1d4f91" stroke="#fff" stroke-width="1"/><text x="668.0" y="182.0" font-size="10" text-anchor="start" fill="#222" font-weight="normal"></text><line x1="590.0" y1="80.0" x2="590.0" y2="190.0" stroke="#1d4f91" stroke-width="0.8" stroke-dasharray="3 3"/><line x1="520.0" y1="135.0" x2="660.0" y2="135.0" stroke="#1d4f91" stroke-width="0.8" stroke-dasharray="3 3"/><text x="590.0" y="215.0" font-size="10.5" text-anchor="middle" fill="#6b7280" font-weight="normal">LE: nodal Lagrange functions (Q9)</text><text x="590.0" y="228.1" font-size="10.5" text-anchor="middle" fill="#6b7280" font-weight="normal">TE: monomials x^a z^b</text><line x1="430.0" y1="133.0" x2="510.0" y2="120.0" stroke="#333" stroke-width="1.3" marker-end="url(#arr)"/><text x="482.0" y="115.0" font-size="10" text-anchor="middle" fill="#6b7280" font-weight="normal">expansion at every node</text><text x="375.0" y="280.0" font-size="13" text-anchor="middle" fill="#111" font-weight="bold">u(x,y,z) = sum_i sum_tau  N_i(y) F_tau(x,z) u_tau,i</text></svg>