<svg xmlns="http://www.w3.org/2000/svg" viewBox="0 0 760 470" width="760" height="470" style="max-width:100%;height:auto"><defs><marker id="arr" viewBox="0 0 10 10" refX="9" refY="5" markerWidth="7" markerHeight="7" orient="auto-start-reverse"><path d="M 0 0 L 10 5 L 0 10 z" fill="#333"/></marker></defs><line x1="105.0" y1="150.0" x2="465.0" y2="200.0" stroke="#c3cad6" stroke-width="0.9"/><line x1="105.0" y1="150.0" x2="645.0" y2="380.0" stroke="#c3cad6" stroke-width="0.9"/><line x1="180.0" y1="130.0" x2="570.0" y2="130.0" stroke="#c3cad6" stroke-width="0.9"/><line x1="105.0" y1="150.0" x2="285.0" y2="200.0" stroke="#c3cad6" stroke-width="0.9"/><line x1="105.0" y1="150.0" x2="105.0" y2="200.0" stroke="#c3cad6" stroke-width="0.9"/><line x1="105.0" y1="150.0" x2="645.0" y2="290.0" stroke="#c3cad6" stroke-width="0.9"/><line x1="105.0" y1="150.0" x2="645.0" y2="200.0" stroke="#c3cad6" stroke-width="0.9"/><line x1="105.0" y1="150.0" x2="465.0" y2="380.0" stroke="#c3cad6" stroke-width="0.9"/><line x1="180.0" y1="130.0" x2="210.0" y2="130.0" stroke="#c3cad6" stroke-width="0.9"/><line x1="105.0" y1="150.0" x2="285.0" y2="380.0" stroke="#c3cad6" stroke-width="0.9"/><line x1="180.0" y1="130.0" x2="390.0" y2="130.0" stroke="#c3cad6" stroke-width="0.9"/><line x1="105.0" y1="60.0" x2="105.0" y2="110.0" stroke="#c3cad6" stroke-width="0.9"/><line x1="105.0" y1="60.0" x2="645.0" y2="380.0" stroke="#c3cad6" stroke-width="0.9"/><line x1="465.0" y1="240.0" x2="645.0" y2="380.0" stroke="#c3cad6" stroke-width="0.9"/><line x1="465.0" y1="240.0" x2="285.0" y2="290.0" stroke="#c3cad6" stroke-width="0.9"/><line x1="390.0" y1="220.0" x2="360.0" y2="220.0" stroke="#c3cad6" stroke-width="0.9"/><line x1="465.0" y1="240.0" x2="465.0" y2="380.0" stroke="#c3cad6" stroke-width="0.9"/><line x1="570.0" y1="130.0" x2="180.0" y2="130.0" stroke="#c3cad6" stroke-width="0.9"/><line x1="645.0" y1="150.0" x2="465.0" y2="200.0" stroke="#c3cad6" stroke-width="0.9"/><line x1="645.0" y1="150.0" x2="645.0" y2="380.0" stroke="#c3cad6" stroke-width="0.9"/><line x1="645.0" y1="150.0" x2="285.0" y2="290.0" stroke="#c3cad6" stroke-width="0.9"/><line x1="645.0" y1="150.0" x2="105.0" y2="380.0" stroke="#c3cad6" stroke-width="0.9"/><line x1="645.0" y1="150.0" x2="645.0" y2="290.0" stroke="#c3cad6" stroke-width="0.9"/><line x1="645.0" y1="150.0" x2="465.0" y2="380.0" stroke="#c3cad6" stroke-width="0.9"/><line x1="570.0" y1="130.0" x2="360.0" y2="130.0" stroke="#c3cad6" stroke-width="0.9"/><line x1="645.0" y1="150.0" x2="285.0" y2="380.0" stroke="#c3cad6" stroke-width="0.9"/><line x1="285.0" y1="330.0" x2="645.0" y2="380.0" stroke="#c3cad6" stroke-width="0.9"/><line x1="285.0" y1="290.0" x2="105.0" y2="240.0" stroke="#c3cad6" stroke-width="0.9"/><line x1="210.0" y1="310.0" x2="180.0" y2="310.0" stroke="#c3cad6" stroke-width="0.9"/><line x1="285.0" y1="330.0" x2="465.0" y2="380.0" stroke="#c3cad6" stroke-width="0.9"/><line x1="360.0" y1="220.0" x2="390.0" y2="220.0" stroke="#c3cad6" stroke-width="0.9"/><line x1="285.0" y1="240.0" x2="645.0" y2="380.0" stroke="#c3cad6" stroke-width="0.9"/><line x1="285.0" y1="240.0" x2="285.0" y2="290.0" stroke="#c3cad6" stroke-width="0.9"/><line x1="285.0" y1="240.0" x2="105.0" y2="380.0" stroke="#c3cad6" stroke-width="0.9"/><line x1="210.0" y1="220.0" x2="180.0" y2="220.0" stroke="#c3cad6" stroke-width="0.9"/><line x1="285.0" y1="240.0" x2="645.0" y2="290.0" stroke="#c3cad6" stroke-width="0.9"/><line x1="285.0" y1="240.0" x2="105.0" y2="290.0" stroke="#c3cad6" stroke-width="0.9"/><line x1="285.0" y1="240.0" x2="465.0" y2="380.0" stroke="#c3cad6" stroke-width="0.9"/><line x1="180.0" y1="400.0" x2="570.0" y2="400.0" stroke="#c3cad6" stroke-width="0.9"/><line x1="180.0" y1="400.0" x2="390.0" y2="400.0" stroke="#c3cad6" stroke-width="0.9"/><line x1="105.0" y1="240.0" x2="645.0" y2="380.0" stroke="#c3cad6" stroke-width="0.9"/><line x1="105.0" y1="240.0" x2="105.0" y2="380.0" stroke="#c3cad6" stroke-width="0.9"/><line x1="105.0" y1="240.0" x2="645.0" y2="290.0" stroke="#c3cad6" stroke-width="0.9"/><line x1="105.0" y1="240.0" x2="465.0" y2="290.0" stroke="#c3cad6" stroke-width="0.9"/><line x1="105.0" y1="240.0" x2="465.0" y2="380.0" stroke="#c3cad6" stroke-width="0.9"/><line x1="105.0" y1="240.0" x2="285.0" y2="380.0" stroke="#c3cad6" stroke-width="0.9"/><line x1="645.0" y1="330.0" x2="645.0" y2="380.0" stroke="#c3cad6" stroke-width="0.9"/><line x1="645.0" y1="330.0" x2="105.0" y2="380.0" stroke="#c3cad6" stroke-width="0.9"/><line x1="645.0" y1="330.0" x2="465.0" y2="380.0" stroke="#c3cad6" stroke-width="0.9"/><line x1="645.0" y1="240.0" x2="645.0" y2="380.0" stroke="#c3cad6" stroke-width="0.9"/><line x1="645.0" y1="240.0" x2="465.0" y2="290.0" stroke="#c3cad6" stroke-width="0.9"/><line x1="645.0" y1="240.0" x2="465.0" y2="380.0" stroke="#c3cad6" stroke-width="0.9"/><line x1="105.0" y1="330.0" x2="645.0" y2="380.0" stroke="#c3cad6" stroke-width="0.9"/><line x1="465.0" y1="330.0" x2="645.0" y2="380.0" stroke="#c3cad6" stroke-width="0.9"/><line x1="465.0" y1="330.0" x2="465.0" y2="380.0" stroke="#c3cad6" stroke-width="0.9"/><line x1="540.0" y1="400.0" x2="570.0" y2="400.0" stroke="#c3cad6" stroke-width="0.9"/><line x1="390.0" y1="400.0" x2="180.0" y2="400.0" stroke="#c3cad6" stroke-width="0.9"/><line x1="465.0" y1="380.0" x2="465.0" y2="330.0" stroke="#c3cad6" stroke-width="0.9"/><line x1="210.0" y1="130.0" x2="180.0" y2="130.0" stroke="#c3cad6" stroke-width="0.9"/><line x1="285.0" y1="150.0" x2="465.0" y2="200.0" stroke="#c3cad6" stroke-width="0.9"/><line x1="285.0" y1="150.0" x2="645.0" y2="380.0" stroke="#c3cad6" stroke-width="0.9"/><line x1="285.0" y1="150.0" x2="285.0" y2="290.0" stroke="#c3cad6" stroke-width="0.9"/><line x1="285.0" y1="150.0" x2="285.0" y2="200.0" stroke="#c3cad6" stroke-width="0.9"/><line x1="285.0" y1="150.0" x2="105.0" y2="380.0" stroke="#c3cad6" stroke-width="0.9"/><line x1="285.0" y1="150.0" x2="645.0" y2="290.0" stroke="#c3cad6" stroke-width="0.9"/><line x1="285.0" y1="150.0" x2="105.0" y2="290.0" stroke="#c3cad6" stroke-width="0.9"/><line x1="285.0" y1="150.0" x2="465.0" y2="290.0" stroke="#c3cad6" stroke-width="0.9"/><line x1="285.0" y1="150.0" x2="465.0" y2="380.0" stroke="#c3cad6" stroke-width="0.9"/><line x1="360.0" y1="400.0" x2="570.0" y2="400.0" stroke="#c3cad6" stroke-width="0.9"/><line x1="360.0" y1="400.0" x2="390.0" y2="400.0" stroke="#c3cad6" stroke-width="0.9"/><line x1="465.0" y1="150.0" x2="465.0" y2="200.0" stroke="#c3cad6" stroke-width="0.9"/><line x1="465.0" y1="150.0" x2="645.0" y2="380.0" stroke="#c3cad6" stroke-width="0.9"/><rect x="30.0" y="20.0" width="150.0" height="40.0" rx="5" fill="#fbe5dc" stroke="#1d4f91" stroke-width="1.2"/><text x="105.0" y="43.9" font-size="11" text-anchor="middle" fill="#12355f" font-weight="bold">APP</text><rect x="30.0" y="110.0" width="150.0" height="40.0" rx="5" fill="#fbe5dc" stroke="#1d4f91" stroke-width="1.2"/><text x="105.0" y="133.8" font-size="11" text-anchor="middle" fill="#12355f" font-weight="bold">ANALYSES</text><rect x="210.0" y="110.0" width="150.0" height="40.0" rx="5" fill="#ece4f6" stroke="#1d4f91" stroke-width="1.2"/><text x="285.0" y="133.8" font-size="11" text-anchor="middle" fill="#12355f" font-weight="bold">POST</text><rect x="390.0" y="110.0" width="150.0" height="40.0" rx="5" fill="#fbf1cc" stroke="#1d4f91" stroke-width="1.2"/><text x="465.0" y="133.8" font-size="11" text-anchor="middle" fill="#12355f" font-weight="bold">SOLVERS</text><rect x="570.0" y="110.0" width="150.0" height="40.0" rx="5" fill="#fbf1cc" stroke="#1d4f91" stroke-width="1.2"/><text x="645.0" y="133.8" font-size="11" text-anchor="middle" fill="#12355f" font-weight="bold">BOUNDARY</text><rect x="390.0" y="200.0" width="150.0" height="40.0" rx="5" fill="#fbf1cc" stroke="#1d4f91" stroke-width="1.2"/><text x="465.0" y="223.8" font-size="11" text-anchor="middle" fill="#12355f" font-weight="bold">ASSEMBLY</text><rect x="210.0" y="200.0" width="150.0" height="40.0" rx="5" fill="#dbe7f6" stroke="#1d4f91" stroke-width="1.2"/><text x="285.0" y="223.8" font-size="11" text-anchor="middle" fill="#12355f" font-weight="bold">ELEMENTS</text><rect x="30.0" y="200.0" width="150.0" height="40.0" rx="5" fill="#dbe7f6" stroke="#1d4f91" stroke-width="1.2"/><text x="105.0" y="223.8" font-size="11" text-anchor="middle" fill="#12355f" font-weight="bold">GAUSS</text><rect x="570.0" y="200.0" width="150.0" height="40.0" rx="5" fill="#ece4f6" stroke="#1d4f91" stroke-width="1.2"/><text x="645.0" y="223.8" font-size="11" text-anchor="middle" fill="#12355f" font-weight="bold">IO</text><rect x="210.0" y="290.0" width="150.0" height="40.0" rx="5" fill="#dbe7f6" stroke="#1d4f91" stroke-width="1.2"/><text x="285.0" y="313.9" font-size="11" text-anchor="middle" fill="#12355f" font-weight="bold">CUF</text><rect x="30.0" y="290.0" width="150.0" height="40.0" rx="5" fill="#dbe7f6" stroke="#1d4f91" stroke-width="1.2"/><text x="105.0" y="313.9" font-size="11" text-anchor="middle" fill="#12355f" font-weight="bold">KINEMATICS</text><rect x="390.0" y="290.0" width="150.0" height="40.0" rx="5" fill="#dbe7f6" stroke="#1d4f91" stroke-width="1.2"/><text x="465.0" y="313.9" font-size="11" text-anchor="middle" fill="#12355f" font-weight="bold">MATERIALS</text><rect x="570.0" y="290.0" width="150.0" height="40.0" rx="5" fill="#dbe7f6" stroke="#1d4f91" stroke-width="1.2"/><text x="645.0" y="313.9" font-size="11" text-anchor="middle" fill="#12355f" font-weight="bold">GEOMETRY</text><rect x="30.0" y="380.0" width="150.0" height="40.0" rx="5" fill="#dbe7f6" stroke="#1d4f91" stroke-width="1.2"/><text x="105.0" y="403.9" font-size="11" text-anchor="middle" fill="#12355f" font-weight="bold">FEM</text><rect x="210.0" y="380.0" width="150.0" height="40.0" rx="5" fill="#dbe7f6" stroke="#1d4f91" stroke-width="1.2"/><text x="285.0" y="403.9" font-size="11" text-anchor="middle" fill="#12355f" font-weight="bold">QUADRATURE</text><rect x="390.0" y="380.0" width="150.0" height="40.0" rx="5" fill="#dff1e5" stroke="#1d4f91" stroke-width="1.2"/><text x="465.0" y="403.9" font-size="11" text-anchor="middle" fill="#12355f" font-weight="bold">MODEL</text><rect x="570.0" y="380.0" width="150.0" height="40.0" rx="5" fill="#dff1e5" stroke="#1d4f91" stroke-width="1.2"/><text x="645.0" y="403.9" font-size="11" text-anchor="middle" fill="#12355f" font-weight="bold">BASE</text><text x="380.0" y="458.0" font-size="9.5" text-anchor="middle" fill="#6b7280" font-weight="normal">edges: a layer uses modules of the layers it points to (drawn from the USE statements; layers lower in the picture know nothing about upper ones)</text></svg>